<?xml version="1.0" encoding="utf-8"?>
<!-- Generator: Adobe Illustrator 24.0.2, SVG Export Plug-In . SVG Version: 6.00 Build 0)  -->
<svg version="1.1" id="Capa_1" xmlns="http://www.w3.org/2000/svg" xmlns:xlink="http://www.w3.org/1999/xlink" x="0px" y="0px"
	 viewBox="0 0 283.46 146.55" style="enable-background:new 0 0 283.46 146.55;" xml:space="preserve">
<style type="text/css">
	.st0{fill:#FFFEF5;}
	.st1{fill:#FFD8A4;}
	.st2{fill:#FF8AAB;}
	.st3{fill:#F9C0D2;}
</style>
<rect class="st0" width="283.46" height="144"/>
<g>
	<path class="st1" d="M59.24,122.02c-0.6-2.02-1.91-3.38-3.91-4.05c2.13-2.96,2.09-5.84-0.13-8.15c-1.15-1.2-2.57-1.87-4.22-2
		c-2.13-0.16-3.92,0.56-5.33,2.15c-1.76-3.12-4.43-4.25-7.58-3.19c-1.58,0.53-2.81,1.56-3.65,3.04c-1.16,2.05-1.18,4.17-0.08,6.31
		c-2.02,0.41-3.18,1.48-3.8,2.33c-0.84,1.15-1.26,2.64-1.15,4.08c0.14,1.77,0.86,3.26,2.15,4.41c1.66,1.49,3.61,1.98,5.81,1.46
		c0.04,4.5,2.01,7.27,5.43,7.63c0.3,0.03,0.59,0.05,0.88,0.05c3.5,0,5.82-2.32,6.72-6.71c1.78,0.81,3.48,1.01,4.94,0.58
		c1.42-0.43,2.6-1.46,3.41-2.98C59.57,125.38,59.75,123.72,59.24,122.02z M37.77,127.06c-2.09,0.7-3.92,0.36-5.44-1
		c-1.05-0.94-1.64-2.16-1.76-3.62c-0.18-2.31,1.24-4.95,4.78-5.27l0.97-0.09l-0.53-0.82c-1.3-2.03-1.41-3.95-0.33-5.86
		c0.69-1.22,1.69-2.06,2.99-2.5c2.82-0.95,5.08,0.23,6.55,3.41l0.43,0.93l0.59-0.84c1.25-1.77,2.84-2.55,4.87-2.4
		c1.35,0.1,2.51,0.65,3.45,1.64c1.96,2.04,1.79,4.56-0.48,7.28l-0.63,0.75l0.96,0.21c2.07,0.45,3.35,1.59,3.91,3.47
		c0.41,1.39,0.27,2.76-0.42,4.06c-0.67,1.26-1.58,2.06-2.71,2.4c-1.35,0.41-2.99,0.11-4.75-0.85l-0.74-0.4l-0.13,0.83
		c-0.51,3.2-2.04,6.92-6.45,6.46c-2.98-0.31-4.52-2.87-4.35-7.21l0.03-0.86L37.77,127.06z"/>
	<path class="st1" d="M45.37,125L45.37,125c1.14,0,2.22-0.45,3.04-1.27c0.84-0.84,1.3-1.95,1.29-3.14c0-1.18-0.46-2.29-1.29-3.12
		c-0.83-0.82-1.93-1.28-3.13-1.28c-1.13,0-2.2,0.47-3.01,1.31c-0.8,0.83-1.24,1.93-1.24,3.09C41.05,123.02,42.99,125,45.37,125z
		 M45.3,117.39c0.87,0,1.67,0.33,2.28,0.93c0.61,0.6,0.94,1.41,0.94,2.28c0,0.87-0.33,1.68-0.95,2.3c-0.59,0.6-1.38,0.92-2.2,0.92
		c-1.73,0-3.14-1.45-3.15-3.22c0-0.85,0.32-1.65,0.9-2.27c0.58-0.61,1.35-0.94,2.16-0.94l0-0.29L45.3,117.39z M45.37,124.71
		L45.37,124.71L45.37,124.71L45.37,124.71z"/>
</g>
<g>
	<path class="st2" d="M229.35,28.32c-0.54-1.83-1.74-3.07-3.56-3.68c1.94-2.69,1.9-5.31-0.12-7.41c-1.05-1.09-2.34-1.7-3.84-1.82
		c-1.93-0.15-3.57,0.51-4.85,1.96c-1.6-2.84-4.03-3.87-6.89-2.9c-1.44,0.49-2.56,1.42-3.31,2.76c-1.05,1.87-1.08,3.79-0.08,5.74
		c-1.83,0.37-2.89,1.34-3.46,2.12c-0.77,1.05-1.15,2.4-1.05,3.71c0.12,1.61,0.78,2.96,1.95,4.01c1.51,1.35,3.29,1.8,5.29,1.33
		c0.04,4.09,1.83,6.62,4.93,6.94c0.27,0.03,0.54,0.04,0.8,0.04c3.18,0,5.29-2.11,6.11-6.1c1.62,0.74,3.16,0.92,4.49,0.53
		c1.29-0.39,2.36-1.33,3.1-2.71C229.65,31.38,229.8,29.86,229.35,28.32z M209.82,32.91c-1.9,0.64-3.57,0.33-4.95-0.91
		c-0.96-0.86-1.5-1.96-1.6-3.29c-0.16-2.1,1.13-4.5,4.34-4.8l0.88-0.08l-0.48-0.75c-1.19-1.84-1.28-3.59-0.3-5.33
		c0.63-1.11,1.54-1.87,2.72-2.27c2.56-0.87,4.62,0.21,5.96,3.1l0.39,0.85l0.54-0.76c1.14-1.61,2.59-2.32,4.43-2.18
		c1.22,0.09,2.28,0.59,3.14,1.49c1.78,1.86,1.63,4.15-0.44,6.62l-0.57,0.68l0.87,0.19c1.89,0.41,3.05,1.45,3.56,3.16
		c0.37,1.27,0.25,2.51-0.39,3.7c-0.61,1.14-1.44,1.88-2.46,2.18c-1.23,0.37-2.72,0.1-4.32-0.77l-0.67-0.36l-0.12,0.75
		c-0.46,2.91-1.86,6.29-5.87,5.88c-2.71-0.28-4.11-2.61-3.96-6.56l0.03-0.78L209.82,32.91z"/>
	<path class="st2" d="M216.73,31.03L216.73,31.03c1.04,0,2.02-0.41,2.77-1.16c0.76-0.76,1.18-1.77,1.18-2.85
		c0-1.08-0.42-2.08-1.18-2.84c-0.75-0.75-1.76-1.16-2.85-1.16c-1.03,0-2,0.43-2.74,1.19c-0.73,0.76-1.13,1.76-1.12,2.81
		C212.8,29.23,214.56,31.03,216.73,31.03z M216.66,24.11c0.79,0,1.52,0.3,2.07,0.85c0.55,0.55,0.86,1.28,0.86,2.07
		c0,0.79-0.3,1.53-0.86,2.09c-0.54,0.54-1.25,0.84-2,0.84c-1.57,0-2.85-1.32-2.86-2.93c0-0.77,0.29-1.5,0.82-2.06
		c0.53-0.55,1.23-0.86,1.96-0.86l0-0.26L216.66,24.11z M216.73,30.77L216.73,30.77L216.73,30.77L216.73,30.77z"/>
</g>
<g>
	<path class="st1" d="M271.4,66.1c-0.65-2.2-2.08-3.68-4.26-4.41c2.32-3.22,2.28-6.36-0.14-8.88c-1.26-1.31-2.8-2.04-4.6-2.18
		c-2.32-0.18-4.27,0.61-5.81,2.34c-1.91-3.4-4.83-4.63-8.25-3.48c-1.73,0.58-3.06,1.7-3.97,3.31c-1.26,2.24-1.29,4.55-0.09,6.87
		c-2.2,0.45-3.46,1.61-4.14,2.54c-0.92,1.25-1.38,2.88-1.26,4.45c0.15,1.93,0.94,3.55,2.34,4.8c1.81,1.62,3.94,2.15,6.33,1.59
		c0.05,4.9,2.19,7.92,5.91,8.31c0.32,0.03,0.65,0.05,0.96,0.05c3.81,0,6.34-2.53,7.32-7.31c1.94,0.89,3.79,1.1,5.38,0.63
		c1.55-0.47,2.83-1.59,3.72-3.25C271.76,69.77,271.94,67.96,271.4,66.1z M248,71.6c-2.28,0.76-4.27,0.4-5.93-1.09
		c-1.15-1.03-1.79-2.35-1.91-3.94c-0.19-2.52,1.35-5.39,5.2-5.75l1.06-0.1l-0.58-0.9c-1.42-2.21-1.54-4.3-0.36-6.39
		c0.75-1.33,1.85-2.24,3.26-2.72c3.07-1.04,5.54,0.25,7.14,3.71l0.47,1.02l0.64-0.91c1.36-1.93,3.1-2.78,5.3-2.62
		c1.47,0.11,2.73,0.71,3.76,1.78c2.14,2.23,1.96,4.97-0.53,7.94l-0.68,0.82l1.04,0.23c2.26,0.49,3.65,1.73,4.26,3.78
		c0.45,1.52,0.29,3.01-0.46,4.43c-0.73,1.37-1.72,2.25-2.95,2.62c-1.47,0.44-3.26,0.12-5.18-0.92l-0.8-0.44l-0.14,0.9
		c-0.56,3.49-2.23,7.54-7.03,7.04c-3.24-0.34-4.93-3.13-4.74-7.86l0.04-0.93L248,71.6z"/>
	<path class="st1" d="M256.28,69.36L256.28,69.36c1.25,0,2.42-0.49,3.32-1.38c0.91-0.91,1.41-2.13,1.41-3.42
		c0-1.29-0.5-2.5-1.41-3.4c-0.9-0.9-2.11-1.39-3.41-1.39c-1.24,0-2.4,0.51-3.28,1.42c-0.87,0.91-1.35,2.1-1.35,3.37
		C251.57,67.2,253.69,69.36,256.28,69.36z M256.2,61.06c0.94,0,1.82,0.36,2.48,1.02c0.66,0.66,1.03,1.54,1.03,2.48
		c0,0.94-0.36,1.83-1.03,2.5c-0.65,0.65-1.5,1.01-2.4,1.01c-1.88,0-3.42-1.58-3.43-3.51c0-0.93,0.35-1.8,0.99-2.47
		c0.63-0.66,1.47-1.02,2.35-1.03l0-0.31L256.2,61.06z M256.28,69.04L256.28,69.04L256.28,69.04L256.28,69.04z"/>
</g>
<g>
	<path class="st3" d="M241.94,124.17c-0.55-1.84-1.75-3.09-3.57-3.7c1.95-2.7,1.91-5.34-0.12-7.45c-1.05-1.1-2.35-1.71-3.86-1.82
		c-1.94-0.15-3.58,0.51-4.87,1.97c-1.61-2.85-4.05-3.89-6.92-2.92c-1.45,0.49-2.57,1.42-3.33,2.78c-1.06,1.88-1.08,3.81-0.08,5.76
		c-1.84,0.37-2.9,1.35-3.47,2.13c-0.77,1.05-1.16,2.41-1.05,3.73c0.12,1.62,0.78,2.98,1.96,4.03c1.52,1.36,3.3,1.81,5.31,1.34
		c0.04,4.11,1.83,6.65,4.96,6.97c0.27,0.03,0.54,0.04,0.8,0.04c3.2,0,5.31-2.12,6.14-6.13c1.63,0.74,3.18,0.93,4.51,0.53
		c1.3-0.39,2.38-1.33,3.12-2.72C242.24,127.25,242.4,125.72,241.94,124.17z M222.32,128.78c-1.91,0.64-3.58,0.33-4.97-0.91
		c-0.96-0.86-1.5-1.97-1.6-3.31c-0.16-2.11,1.13-4.52,4.36-4.82l0.89-0.08l-0.48-0.75c-1.19-1.85-1.29-3.61-0.3-5.36
		c0.63-1.11,1.55-1.88,2.73-2.28c2.57-0.87,4.64,0.21,5.99,3.11l0.39,0.85l0.54-0.77c1.14-1.62,2.6-2.33,4.45-2.2
		c1.23,0.09,2.29,0.6,3.16,1.5c1.79,1.87,1.64,4.17-0.44,6.66l-0.57,0.69l0.87,0.19c1.9,0.41,3.06,1.45,3.57,3.17
		c0.38,1.27,0.25,2.52-0.39,3.71c-0.61,1.15-1.44,1.89-2.47,2.2c-1.23,0.37-2.73,0.1-4.34-0.77l-0.67-0.37L232.9,130
		c-0.47,2.92-1.87,6.32-5.9,5.9c-2.72-0.28-4.13-2.62-3.98-6.59l0.03-0.78L222.32,128.78z"/>
	<path class="st3" d="M229.26,126.9L229.26,126.9c1.05,0,2.03-0.41,2.78-1.16c0.76-0.77,1.18-1.78,1.18-2.86
		c0-1.08-0.42-2.09-1.18-2.85c-0.76-0.75-1.77-1.17-2.86-1.17c-1.04,0-2.01,0.43-2.75,1.19c-0.73,0.76-1.13,1.77-1.13,2.82
		C225.31,125.09,227.09,126.9,229.26,126.9z M229.2,119.94c0.79,0,1.53,0.3,2.08,0.85c0.55,0.55,0.86,1.29,0.86,2.08
		c0,0.79-0.31,1.54-0.87,2.1c-0.54,0.54-1.26,0.84-2.01,0.84c-1.58,0-2.87-1.32-2.87-2.94c0-0.78,0.29-1.51,0.83-2.07
		c0.53-0.55,1.23-0.86,1.97-0.86l0-0.26L229.2,119.94z M229.26,126.64L229.26,126.64L229.26,126.64L229.26,126.64z"/>
</g>
<g>
	<path class="st3" d="M85.8,24.71c-0.55-1.85-1.76-3.1-3.59-3.72c1.96-2.72,1.92-5.37-0.12-7.49c-1.06-1.1-2.36-1.72-3.88-1.83
		c-1.95-0.15-3.6,0.52-4.9,1.98c-1.61-2.87-4.07-3.91-6.96-2.93c-1.46,0.49-2.58,1.43-3.35,2.79c-1.06,1.89-1.09,3.83-0.08,5.8
		c-1.85,0.38-2.92,1.36-3.49,2.14c-0.78,1.06-1.16,2.43-1.06,3.75c0.13,1.63,0.79,2.99,1.97,4.05c1.52,1.37,3.32,1.82,5.34,1.34
		c0.04,4.14,1.84,6.68,4.99,7.01c0.27,0.03,0.55,0.04,0.81,0.04c3.21,0,5.34-2.13,6.18-6.17c1.64,0.75,3.2,0.93,4.54,0.53
		c1.31-0.39,2.39-1.34,3.13-2.74C86.11,27.81,86.27,26.27,85.8,24.71z M66.07,29.35c-1.92,0.64-3.6,0.33-5-0.92
		c-0.97-0.87-1.51-1.99-1.61-3.32c-0.16-2.13,1.14-4.55,4.39-4.85l0.89-0.08l-0.49-0.76c-1.2-1.86-1.3-3.63-0.3-5.39
		c0.63-1.12,1.56-1.89,2.75-2.3c2.59-0.87,4.67,0.21,6.02,3.13l0.4,0.86l0.54-0.77c1.15-1.63,2.61-2.34,4.47-2.21
		c1.24,0.09,2.31,0.6,3.17,1.5c1.8,1.88,1.65,4.19-0.45,6.69l-0.58,0.69l0.88,0.19c1.91,0.42,3.08,1.46,3.59,3.19
		c0.38,1.28,0.25,2.53-0.39,3.73c-0.61,1.15-1.45,1.9-2.49,2.21c-1.24,0.37-2.75,0.1-4.37-0.78l-0.68-0.37l-0.12,0.76
		c-0.47,2.94-1.88,6.36-5.93,5.94c-2.73-0.28-4.15-2.64-4-6.63l0.03-0.79L66.07,29.35z"/>
	<path class="st3" d="M73.05,27.45L73.05,27.45c1.05,0,2.04-0.41,2.8-1.17c0.77-0.77,1.19-1.79,1.19-2.88
		c0-1.09-0.42-2.11-1.19-2.87c-0.76-0.76-1.78-1.17-2.88-1.17c-1.04,0-2.02,0.43-2.76,1.2c-0.74,0.77-1.14,1.77-1.13,2.84
		C69.08,25.64,70.87,27.45,73.05,27.45z M72.99,20.46c0.79,0,1.54,0.3,2.09,0.86c0.56,0.55,0.87,1.3,0.87,2.1
		c0,0.8-0.31,1.55-0.87,2.11c-0.55,0.55-1.26,0.85-2.02,0.85c-1.59,0-2.88-1.33-2.89-2.96c0-0.78,0.29-1.52,0.83-2.08
		c0.53-0.56,1.24-0.86,1.98-0.87l0-0.26L72.99,20.46z M73.06,27.19L73.06,27.19L73.06,27.19L73.06,27.19z"/>
</g>
<g>
	<path class="st2" d="M44.14,58.04c-0.66-2.22-2.1-3.72-4.3-4.46c2.35-3.25,2.3-6.42-0.14-8.97c-1.27-1.32-2.83-2.06-4.64-2.2
		c-2.34-0.18-4.31,0.62-5.87,2.37c-1.93-3.43-4.88-4.68-8.34-3.51c-1.74,0.59-3.09,1.71-4.01,3.34c-1.27,2.26-1.3,4.59-0.09,6.94
		c-2.22,0.45-3.49,1.63-4.18,2.56c-0.93,1.27-1.39,2.9-1.27,4.49c0.15,1.95,0.94,3.58,2.36,4.85c1.83,1.64,3.98,2.18,6.4,1.61
		c0.05,4.95,2.21,8,5.97,8.39c0.33,0.03,0.65,0.05,0.97,0.05c3.85,0,6.4-2.55,7.39-7.38c1.96,0.9,3.83,1.12,5.43,0.64
		c1.56-0.47,2.86-1.6,3.75-3.28C44.5,61.75,44.69,59.91,44.14,58.04z M20.51,63.6c-2.3,0.77-4.31,0.4-5.98-1.1
		c-1.16-1.04-1.81-2.38-1.93-3.98c-0.2-2.55,1.37-5.45,5.25-5.8l1.07-0.1l-0.58-0.9c-1.43-2.23-1.55-4.34-0.36-6.45
		c0.76-1.34,1.86-2.27,3.29-2.75c3.1-1.05,5.59,0.25,7.21,3.75l0.47,1.03l0.65-0.92c1.38-1.95,3.13-2.81,5.36-2.64
		c1.48,0.11,2.76,0.72,3.8,1.8c2.16,2.25,1.97,5.02-0.53,8.01l-0.69,0.83l1.05,0.23c2.28,0.5,3.69,1.75,4.3,3.82
		c0.45,1.53,0.3,3.03-0.47,4.47c-0.74,1.38-1.74,2.27-2.98,2.64c-1.48,0.45-3.29,0.12-5.23-0.93l-0.81-0.44l-0.15,0.91
		c-0.56,3.52-2.25,7.61-7.1,7.11c-3.27-0.34-4.97-3.16-4.79-7.94l0.04-0.94L20.51,63.6z"/>
	<path class="st2" d="M28.87,61.33L28.87,61.33c1.26,0,2.45-0.5,3.35-1.4c0.92-0.92,1.43-2.15,1.42-3.45c0-1.3-0.51-2.52-1.42-3.43
		c-0.91-0.91-2.13-1.4-3.44-1.4c-1.25,0-2.42,0.52-3.31,1.44c-0.88,0.92-1.36,2.13-1.36,3.4C24.12,59.15,26.25,61.33,28.87,61.33z
		 M28.79,52.95c0.95,0,1.84,0.36,2.51,1.03c0.67,0.66,1.04,1.55,1.04,2.51c0,0.95-0.37,1.85-1.04,2.53
		c-0.65,0.65-1.51,1.02-2.42,1.02c-1.9,0-3.45-1.59-3.46-3.55c0-0.94,0.35-1.82,1-2.49c0.64-0.67,1.48-1.03,2.37-1.04l0-0.32
		L28.79,52.95z M28.87,61.01L28.87,61.01L28.87,61.01L28.87,61.01z"/>
</g>
<g>
	<g>
		<path class="st2" d="M71.46,82.63c0.02-0.02,0.04-0.03,0.05-0.05C71.49,82.59,71.47,82.61,71.46,82.63
			C71.46,82.63,71.46,82.63,71.46,82.63z"/>
		<polygon class="st2" points="124.94,67.95 124.94,67.95 124.94,67.95 124.94,67.95 		"/>
		<path class="st2" d="M109.98,71.36c2.8-1.59,5.55-3.27,8.29-4.96c1.09-0.67,2.5-1.42,3.47-1.81c0.93-0.38,1.88-0.71,2.85-0.94
			c0.43-0.1,0.97-0.2,1.24-0.23c0.26-0.02,0.52-0.04,0.78-0.04c0.11,0,0.53,0.02,0.54,0.02c0.2,0.03,0.4,0.08,0.6,0.13
			c0.28,0.08,0.06-0.03,0.36,0.14c0.38,0.21,0.47,0.3,0.68,0.65c0.23,0.38,0.39,0.98,0.41,1.54c0,0.12-0.01,0.23-0.01,0.35
			c0,0.05-0.01,0.1-0.01,0.15c-0.03,0.16-0.06,0.32-0.1,0.47c-0.02,0.09-0.05,0.17-0.08,0.26c-0.01,0.03-0.01,0.05-0.02,0.06
			c0,0,0,0.01-0.01,0.02c-0.23,0.46-0.19,0.48-0.65,0.83c0.22-0.17-0.44,0.22-0.25,0.14c-0.25,0.11-0.55,0.19-0.82,0.23
			c-0.35,0.05-0.73,0.04-1.08,0.01c-0.12-0.01-0.25-0.02-0.37-0.03c-0.13-0.02-0.27-0.04-0.4-0.07c-0.03-0.01-0.04-0.01-0.06-0.01
			c-0.08-0.07-0.16-0.14-0.21-0.19c-0.01-0.01-0.01-0.02-0.02-0.03c-0.03-0.04-0.05-0.1-0.08-0.15c0.43-0.24,0.85-0.37,1.34-0.49
			c1.77-0.44,1.02-3.18-0.75-2.74c-1.54,0.38-3.36,1.19-3.47,3.01c-0.06,1.03,0.53,1.99,1.24,2.69c0.92,0.9,2.64,0.95,3.87,0.84
			c1.26-0.11,2.47-0.54,3.37-1.47c1.03-1.06,1.51-2.65,1.42-4.11c-0.15-2.54-1.72-4.63-4.3-5.01c-4.22-0.62-8.47,1.83-11.94,3.96
			c-3,1.84-6.02,3.72-9.16,5.36c-0.31-5.87-1.37-11.74-2.81-17.4c-0.48-1.9-1-3.8-1.64-5.65c-0.5-1.43-2.89-1.31-2.79,0.38
			c0.41,7.1-1.92,14.34-4.96,20.68c-0.67,1.4-1.46,2.75-2.3,4.07c-1.82-0.43-3.57-1.12-5.15-2.07c-1.57-0.95-3,1.51-1.43,2.45
			c1.5,0.9,3.17,1.6,4.91,2.11c-0.17,0.24-0.34,0.49-0.51,0.73c-2.08,2.93-4.42,5.71-7.12,8.09c-1.75,1.54-3.69,2.88-5.83,3.84
			c-0.24,0.11-0.44,0.19-0.91,0.36c-0.37,0.13-0.74,0.25-1.12,0.35c-0.3,0.08-0.6,0.15-0.9,0.2c-0.12,0.02-0.24,0.04-0.36,0.06
			c-0.06,0.01-0.13,0.02-0.19,0.02c-0.4,0.03-0.8,0.05-1.2,0.03c-0.07,0-0.15-0.01-0.22-0.02c-0.74-0.32-1.06-0.51-1.27-1.22
			c-0.26-0.92-0.07-2.03,0.2-3.02c0.12-0.44,0.26-0.86,0.41-1.29c-0.01,0-0.01,0.01-0.01,0.01c0,0,0.01-0.01,0.02-0.01
			c0-0.01,0.01-0.02,0.01-0.03c0.12-0.34,0.16-0.16,0.04-0.02c0.09-0.09,0.19-0.23,0.28-0.4c2.16-0.14,4.24-0.74,5.99-2
			c1.98-1.43,3.27-3.42,4.16-5.67c0.37-0.94-0.55-1.71-1.37-1.8c-1.57-0.16-3.32,0.49-4.67,1.19c-1.52,0.79-2.89,1.94-4.02,3.21
			c-0.61,0.68-1.22,1.42-1.77,2.21c-1.31-0.07-2.48-0.28-3.85-0.68c-0.45-0.13-0.91-0.28-1.35-0.44c-0.14-0.05-0.28-0.12-0.42-0.16
			c-0.07-0.02-0.07-0.02-0.04-0.01c-0.65-0.2-1.35-0.05-1.73,0.59c-0.36,0.6-0.19,1.63,0.51,1.94c1.65,0.73,3.52,1.28,5.42,1.52
			c-0.78,2.14-1.23,4.85-0.01,6.87c0.8,1.33,2.22,2.01,3.72,2.09c3.32,0.18,6.7-1.44,9.36-3.25c2.8-1.91,5.26-4.3,7.44-6.88
			c1.53-1.81,3.01-3.74,4.37-5.73c2.08,0.31,4.18,0.36,6.16,0.11c1.47-0.18,2.85-0.54,4.2-1.01c-0.01,2.02-0.11,4.04-0.32,6.05
			c-0.28,2.79-0.59,6.17-2.23,8.51c-1.05,1.5,1.41,2.92,2.45,1.43c1.63-2.31,2.05-5.47,2.41-8.2c0.32-2.46,0.49-4.94,0.54-7.41
			c0.01-0.52,0-1.05,0-1.57C107.83,72.55,108.91,71.97,109.98,71.36z M124.98,67.84c-0.02-0.03-0.03-0.06-0.05-0.09
			C125,67.83,125,67.84,124.98,67.84z M124.94,67.95C124.94,67.95,124.94,67.95,124.94,67.95
			C124.94,67.96,124.94,67.95,124.94,67.95C124.94,67.96,124.94,67.96,124.94,67.95C124.94,67.96,124.78,68.04,124.94,67.95
			c-0.06-0.19-0.01-0.15,0.02-0.1C124.94,67.87,124.93,67.88,124.94,67.95c0.01-0.01,0.02-0.01,0.03-0.02
			C124.97,67.95,124.97,67.96,124.94,67.95z M76.36,76.91c0.55-0.36,1.04-0.62,1.56-0.83c-0.69,0.93-1.55,1.73-2.6,2.29
			c-0.41,0.22-0.83,0.39-1.25,0.53C74.75,78.14,75.51,77.46,76.36,76.91z M95.22,72.5c0.36-0.61,0.71-1.22,1.04-1.83
			c1.45-2.71,2.61-5.62,3.59-8.53c0.74-2.19,1.36-4.45,1.79-6.74c0.55,2.41,1,4.85,1.37,7.27c0.44,2.86,0.72,5.73,0.83,8.61
			C101.12,72.32,98.14,72.73,95.22,72.5z"/>
		<path class="st2" d="M145.74,74.07C145.74,74.07,145.74,74.07,145.74,74.07c0.01-0.01,0.01-0.01,0.01-0.02
			C145.75,74.06,145.74,74.07,145.74,74.07z"/>
		<path class="st2" d="M216.68,83.65c-0.09-0.76-0.59-1.42-1.42-1.42c-0.7,0-1.51,0.65-1.42,1.42c0.32,2.84-0.22,5.63-2.2,7.68
			c-1.46,1.52-3.35,2.48-5.24,3.09c-0.68,0.22-1.38,0.4-2.08,0.53c-0.02-2.75-0.54-5.41-0.9-8.18c2.32-2.91,3.15-7.05,2.88-10.73
			c-0.09-1.26-0.22-2.68-0.86-3.8c-0.73-1.26-2.37-1.66-3.65-0.68c-2.31,1.77-2.92,7.16-2.7,9.47c0.23,2.36,1.01,5.12,0.87,5.23
			c-0.54,0.44-1.43,0.85-2.03,1.05c-0.38,0.12-0.76,0.22-1.15,0.29c-0.07,0.01-0.3,0.04-0.35,0.05c-0.11,0.01-0.23,0.02-0.34,0.03
			c-0.32,0.02-0.64,0.03-0.96,0c-2.09-0.19-3.04-1.83-3.19-3.82c-0.18-2.48,0.41-5.09,1.53-7.26c0.25-0.49,0.54-0.98,0.87-1.42
			c0.01-0.01,0.26-0.31,0.32-0.36c0.08-0.09,0.59-0.52,0.34-0.33c0.62-0.46,0.92-1.23,0.51-1.94c-0.35-0.61-1.33-0.96-1.94-0.51
			c-2.09,1.54-3.23,4.16-3.89,6.59c-0.68,2.51-0.94,5.38-0.01,7.87c-0.21,0.36-0.45,0.64-0.6,0.82c0,0,0,0,0,0c0,0,0,0,0,0
			c0-0.01,0-0.01-0.01-0.01c-0.02-0.01-0.04-0.02-0.05-0.04c-0.13-0.1-0.24-0.22-0.35-0.34c-0.22-0.23-0.14-0.15-0.24-0.29
			c-0.16-0.22-0.3-0.45-0.44-0.68c-0.91-1.53-1.44-2.98-1.98-4.71c-0.44-1.4-0.72-2.86-0.94-4.32c1.51-4.59,2.29-9.45,2.66-14.24
			c0.36-4.57,0.45-9.31-0.1-13.87c-0.17-1.4-0.34-3.24-1.34-4.34c-0.98-1.08-2.47-0.74-3.18,0.45c-1.08,1.8-1.14,4.17-1.31,6.23
			c-0.2,2.45-0.33,4.91-0.41,7.36c-0.19,5.99-0.18,12.2,0.77,18.2c-0.16,0.48-0.33,0.96-0.51,1.43c-0.13,0.34-0.26,0.67-0.4,1
			c-0.03,0.07-0.06,0.14-0.09,0.21c-0.07,0.16-0.14,0.32-0.21,0.48c-0.27,0.58-0.56,1.14-0.87,1.69c-1.35,2.39-3.15,4.47-5.73,5.58
			c-1.78,0.76-3.44,0.98-5.34,0.83c-0.12-0.01-0.25-0.03-0.37-0.03c-0.02,0-0.02,0-0.04,0c-0.01,0-0.01,0-0.03-0.01
			c-0.13-0.02-0.26-0.03-0.39-0.07c-0.8-0.24-1.42-0.86-1.73-1.57c-0.34-0.78-0.4-1.7-0.3-2.65c0.17,0.06,0.36,0.09,0.59,0.08
			c4.05-0.3,9.71-1.76,11.17-6.06c0.78-2.3-0.18-5.06-2.33-6.26c-3.16-1.76-6.52,0.83-8.48,3.17c-1.63,1.95-2.74,4.18-3.36,6.65
			c-0.33,1.31-0.52,2.75-0.38,4.14c-0.04,0.03-0.07,0.06-0.11,0.1c-1.08,1.27-2.36,2.4-4.04,2.71c-0.18,0.03-0.39,0.05-0.68,0.05
			c-0.13,0-0.26,0-0.39-0.01c0,0-0.22-0.02-0.28-0.02c-0.49-0.07-0.99-0.22-1.45-0.41c-0.06-0.03-0.16-0.07-0.18-0.08
			c-0.1-0.05-0.2-0.1-0.3-0.16c-0.18-0.1-0.35-0.2-0.53-0.31c-0.12-0.08-0.23-0.16-0.35-0.24c-0.02-0.01-0.03-0.02-0.04-0.03
			c-0.01-0.01-0.02-0.02-0.03-0.03c-0.84-0.86-1.46-1.79-1.76-2.97c-0.69-2.67-0.2-5.95,1.65-7.85c0.19-0.2,0.4-0.38,0.61-0.57
			c0.02-0.02,0.17-0.14,0.19-0.16c0.03-0.02,0.07-0.05,0.1-0.07c0.32-0.23,0.65-0.44,1-0.62c0.08-0.04,0.16-0.07,0.23-0.12
			c0,0,0,0,0.01,0c0.22-0.05,0.53-0.08,0.6-0.09c0.17-0.02,0.35-0.03,0.53-0.03c0.05,0,0.45,0.02,0.45,0.01
			c0.13,0.02,0.26,0.05,0.38,0.08c0.05,0.01,0.39,0.15,0.35,0.13c0.05,0.03,0.1,0.05,0.15,0.08c0.04,0.03,0.27,0.2,0.28,0.2
			c0.06,0.05,0.11,0.1,0.17,0.15c0.03,0.03,0.15,0.17,0.19,0.22c0.09,0.13,0.18,0.27,0.26,0.41c0.05,0.08,0.08,0.17,0.13,0.25
			c0.01,0.01,0.01,0.02,0.02,0.03c0,0.01,0,0.01,0.01,0.02c0.04,0.14,0.09,0.27,0.13,0.4c0.04,0.15,0.08,0.3,0.1,0.46
			c0.11,0.76,1.07,1.18,1.75,0.99c0.82-0.22,1.1-0.98,0.99-1.75c-0.27-1.86-1.66-3.55-3.39-4.2c-2.4-0.9-4.76,0.02-6.6,1.56
			c-2.83,2.37-3.73,6.13-3.31,9.69c0.1,0.86,0.32,1.69,0.62,2.49c-0.85,0.65-1.78,1.28-2.78,1.66c-0.34,0.13-0.84,0.28-1.11,0.31
			c0,0-0.32,0.01-0.42,0.01c-0.07,0-0.14,0-0.21-0.01c-0.02,0-0.02,0-0.03,0c-0.01,0-0.03-0.01-0.05-0.01
			c-0.14-0.03-0.28-0.07-0.42-0.12c-0.03-0.01,0.09,0.06-0.15-0.09c-0.05-0.03-0.12-0.08-0.16-0.1c-0.08-0.07-0.17-0.15-0.24-0.23
			c1.08-1.51,1.82-3.28,2.12-5.04c0.37-2.11,0.79-7.97-0.95-10.21c-0.47-0.61-1.45-0.56-2.09-0.19c-0.56,0.31-0.96,0.84-1.28,1.43
			c-0.01-0.7-0.46-1.4-1.37-1.39c-4.39,0.05-8.91,2.79-10.44,6.96c-0.86,2.35-0.92,5.36-0.02,7.79c-0.96,0.63-1.98,1.17-3.11,1.43
			c-0.37,0.09-0.08,0.05-0.45,0.05c-0.08,0-0.41-0.04-0.45-0.03c-0.14-0.05-0.36-0.12-0.37-0.12c-0.12-0.07-0.27-0.19-0.3-0.2
			c-0.41-0.39-0.64-0.83-0.82-1.43c-0.32-1.03-0.33-1.37-0.39-2.34c-0.07-1.17,0.18-2.35,0.13-3.51c0-0.02,0.01-0.04,0.01-0.06
			c0.78-0.06,1.51-0.28,2.06-0.83c2.21-2.25-1.29-6.21-3.52-3.6c-0.37,0.43-0.64,0.94-0.85,1.48c-1.25-0.09-2.49-0.23-3.71-0.5
			c0-1.44-0.17-2.74-0.83-4.05c-0.74-1.48-2.27-2.89-4-1.99c-1.31,0.68-2.1,2.22-2.04,3.67c0.09,2.26,1.96,3.64,3.89,4.43
			c-0.39,2.7-1.58,5.23-3.43,7.25c-0.41,0.45-0.85,0.87-1.3,1.27c-0.51,0.45-0.55,0.47-0.94,0.75c-0.36,0.26-0.74,0.52-1.13,0.73
			c-1.62,0.86-0.18,3.31,1.43,2.45c4.31-2.28,7.28-6.88,8.11-11.66c1.11,0.22,2.24,0.35,3.35,0.44c0.01,0,0.03,0,0.04,0
			c-0.06,0.69-0.09,1.38-0.11,2.02c-0.07,2.12,0.07,4.51,1.18,6.38c1.6,2.69,4.6,2.59,7.16,1.42c0.65-0.3,1.26-0.66,1.86-1.04
			c1.74,1.87,4.44,2.61,7.03,2.06c1.35-0.29,2.56-0.92,3.6-1.78c1.78,1.68,4.4,1.54,6.71,0.39c0.79-0.39,1.51-0.88,2.22-1.41
			c0.64,0.76,1.41,1.42,2.33,1.9c1.43,0.75,3.05,1.16,4.67,0.96c2.01-0.24,3.72-1.25,5.14-2.63c0.21,0.31,0.45,0.6,0.74,0.88
			c1.36,1.29,2.99,1.59,4.78,1.6c2.59,0.01,5.22-0.69,7.4-2.08c2.69-1.71,4.51-4.27,5.87-7.06c0.4,1.46,0.97,2.89,1.6,4.25
			c0.85,1.83,2.41,4.7,4.87,4.19c0.71-0.15,1.28-0.56,1.75-1.09c2.21,1.9,5.66,1.8,8.36,0.63c0.42-0.18,0.72-0.34,1.09-0.57
			c0.09,0.62,0.27,1.19,0.37,1.81c0.08,0.47,0.23,0.97,0.25,1.45c0.01,0.12-0.05-0.53-0.04-0.28c0.07,1.18,0.11,2.28,0.09,3.35
			c-3.39,0.61-6.71,1.62-9.77,3.2c-1.73,0.89-3.45,2-4.81,3.4c-1.43,1.47-2.99,3.69-2.28,5.83c0.59,1.78,2.57,2.69,4.32,2.85
			c2.99,0.29,6.31-0.29,8.9-1.84c3.92-2.34,5.73-6.64,6.32-10.99c0.48-0.09,0.95-0.18,1.44-0.28c4.74-1.07,9.36-3.99,10.75-8.89
			C216.8,87.06,216.87,85.33,216.68,83.65z M156.94,74.55c-0.09,0.04-0.19,0.09-0.18,0.08C156.77,74.6,156.84,74.57,156.94,74.55z
			 M115.55,73.23c-0.01,0-0.01,0-0.02,0C115.48,73.18,115.42,73.09,115.55,73.23z M115.57,73.26c0,0-0.01,0-0.02-0.01
			C115.56,73.26,115.57,73.26,115.57,73.26z M116.14,75.49c-0.04-0.03-0.08-0.06-0.1-0.08c-0.12-0.11-0.22-0.22-0.33-0.33
			c-0.04-0.05-0.11-0.14-0.15-0.21c-0.03-0.05-0.07-0.16-0.1-0.22c-0.02-0.08-0.04-0.16-0.07-0.24c0-0.01,0-0.01,0-0.01
			c0.01-0.09,0.01-0.2,0-0.29c0.03-0.09,0.05-0.19,0.07-0.28c0.01-0.03,0.02-0.06,0.03-0.09c0.02-0.04,0.03-0.09,0.06-0.12
			c0.02-0.03,0.09-0.11,0.17-0.19c0.02,0.02,0.04,0.04,0.05,0.05c0.16,0.23,0.29,0.48,0.41,0.73c0.18,0.35,0.04,0.04,0.16,0.36
			c0.05,0.12,0.1,0.24,0.13,0.37c0.05,0.18,0.08,0.47,0.1,0.81c-0.06-0.03-0.12-0.07-0.18-0.1
			C116.3,75.61,116.22,75.55,116.14,75.49z M125.38,77.65C125.38,77.65,125.39,77.65,125.38,77.65
			C125.39,77.65,125.38,77.65,125.38,77.65C125.38,77.65,125.38,77.65,125.38,77.65z M143.55,84.43c-0.78-1.86-0.14-6.09,1.2-7.58
			C145.03,76.53,144.99,82.84,143.55,84.43z M141.47,86.93c-0.02,0.01-0.05,0.03-0.1,0.07c-0.21,0.14-0.41,0.28-0.63,0.41
			c-0.19,0.11-0.39,0.22-0.59,0.32c-0.08,0.04-0.17,0.08-0.25,0.12c-0.01,0.01-0.02,0.01-0.03,0.01c0,0,0,0,0,0
			c-0.24,0.09-0.49,0.19-0.74,0.25c-1.14,0.29-2.49,0.15-3.5-0.45c-0.6-0.35-1.03-0.83-1.35-1.36c-0.13-0.2-0.23-0.42-0.33-0.63
			c-0.02-0.06-0.14-0.35-0.17-0.44c-0.94-3.17-0.17-6.75,2.34-8.73c1.02-0.8,2.24-1.32,3.65-1.68c0.28-0.07,0.55-0.13,0.83-0.18
			c0.11-0.02,0.23-0.04,0.34-0.06c0.02,0,0.08-0.01,0.15-0.02c0.09-0.01,0.29-0.03,0.34-0.04c0.07-0.01,0.15-0.01,0.22-0.01
			c0.36,0,0.65-0.12,0.87-0.3c-0.06,0.17-1.8,3.11-2.07,6.88c-0.24,3.35,1.15,5.73,1.07,5.81
			C141.49,86.91,141.47,86.92,141.47,86.93z M167.06,79.98c0.29-0.77,0.7-1.62,1.18-2.36c0.03-0.05,0.17-0.24,0.21-0.3
			c0.23-0.31,0.47-0.61,0.72-0.9c0.59-0.7,1.24-1.38,1.99-1.92c0.46-0.33,0.95-0.61,1.49-0.77c0.4-0.11,0.83-0.11,1.09-0.05
			c0.3,0.08,0.6,0.27,0.73,0.38c0.39,0.36,0.4,0.38,0.64,0.9c-0.1-0.22,0.07,0.2,0.1,0.28c0.02,0.07,0.09,0.47,0.11,0.46
			c0.04,0.46-0.04,0.88-0.24,1.32c-0.33,0.74-1.08,1.41-1.85,1.88c-1.69,1.04-3.68,1.51-5.64,1.83c-0.08,0.01-0.15,0.02-0.23,0.03
			c-0.1,0.01-0.2,0.02-0.3,0.04c-0.1,0.01-0.19,0.02-0.29,0.03C166.85,80.54,166.95,80.25,167.06,79.98z M181.18,79.22
			C181.15,79.3,181.16,79.27,181.18,79.22L181.18,79.22z M184.22,68c-0.06-1.39-0.09-2.79-0.1-4.18c-0.03-4.51,0.12-9.04,0.55-13.52
			c0.03-0.33,0.08-0.66,0.12-0.99c0.06,0.53,0.1,1.05,0.13,1.58c0.13,2.14,0.19,4.28,0.16,6.42C185.05,60.88,184.79,64.46,184.22,68
			z M172.11,46.05c0,0,0.03,0.06,0.06,0.12C172.13,46.17,172.06,46.15,172.11,46.05z M189.04,87.34
			C189.04,87.34,189.04,87.34,189.04,87.34C189.04,87.34,189.04,87.34,189.04,87.34C189.04,87.34,189.04,87.35,189.04,87.34
			C189.04,87.34,189.04,87.34,189.04,87.34z M189.13,87.31c-0.01,0-0.03,0.01-0.05,0.02c0,0,0,0,0,0
			C189.1,87.32,189.11,87.32,189.13,87.31z M202.77,82.04c-0.89-1.73-0.21-6.55,0.61-6.86C203.63,76.12,203.63,80.64,202.77,82.04z
			 M200.54,101.03c-0.65,1.88-1.89,3.86-3.59,5.03c-1.1,0.75-2.23,1.22-3.53,1.52c-0.69,0.16-1.39,0.25-2.1,0.3
			c-0.38,0.02-0.77,0.03-1.15,0.03c-0.18,0-1.33-0.11-1.13-0.05c-0.14-0.03-0.27-0.05-0.41-0.09c-0.16-0.04-0.31-0.09-0.47-0.15
			c-0.02-0.01-0.03-0.01-0.04-0.01c-0.01,0-0.01-0.01-0.02-0.01c-0.14-0.07-0.27-0.14-0.4-0.22c-0.25-0.15-0.33-0.28-0.38-0.4
			c-0.02-0.06-0.04-0.26-0.03,0c-0.01-0.14-0.02-0.28,0-0.43c0-0.02,0.19-0.55,0.3-0.76c0.32-0.63,0.78-1.21,1.27-1.72
			c0.19-0.2,0.38-0.38,0.59-0.56c0.15-0.13,0.31-0.26,0.46-0.39c0.34-0.28,0.08-0.07,0.38-0.3c2.51-1.82,5.39-3.03,8.37-3.86
			c0.86-0.24,1.71-0.41,2.55-0.56C201.06,99.26,200.85,100.13,200.54,101.03z"/>
	</g>
	<g>
		<path class="st2" d="M95.86,95.7c1.09,1.5,0.28,4.81-0.15,6.47c-0.24,1.04-1.93,0.65-1.66-0.45c0.29-1.09,0.5-2.21,0.54-3.41
			c0.05-2.3-1.16-1.85-1.97,0.04c-0.24,0.6-0.41,1.24-0.56,1.87c-0.26,0.91-1.62,0.75-1.69-0.23c-0.03-0.74-0.08-1.45-0.23-2.12
			c-0.17-0.93-0.89-1.06-1.27-0.13c-0.52,1.27-0.49,2.83-0.41,4.23c0.08,0.92-1.29,1.13-1.65,0.27c-0.2-0.51-0.23-1.23-0.29-1.68
			c-0.17-1.73-0.26-3.54,0.04-5.26c0.17-1.04,1.66-0.9,1.66,0.13c-0.01,0.14-0.03,0.28-0.04,0.42c1.29-0.75,2.71-0.68,3.39,0.82
			c0.4-0.6,1.09-1.29,1.85-1.62C94.35,94.62,95.32,94.93,95.86,95.7z"/>
		<path class="st2" d="M103.45,96.44c-0.09,0.52-0.14,1.05-0.19,1.6c-0.1,1.22-0.09,2.43,0.04,3.64c0.08,1.06-1.71,1.14-1.71,0
			c-0.03-0.19-0.04-0.4-0.05-0.6c-0.2,0.18-0.42,0.33-0.67,0.45c-0.82,0.42-1.92,0.54-2.74-0.06c-0.87-0.63-1.23-1.88-0.96-2.99
			c0.4-1.76,2.12-3.4,4.05-2.92c0.23,0.05,0.45,0.14,0.63,0.26C102.41,94.9,103.78,95.58,103.45,96.44z M101.4,97.73
			c-0.73-0.82-1.52-0.56-2.14,0.26c-0.46,0.61-0.81,2.61,0.5,2.2C100.75,99.85,101.13,98.68,101.4,97.73z"/>
		<path class="st2" d="M108.4,101.87c-0.74-0.52-1.7-1.11-2.52-1.5c0.05,0.43,0.09,0.88,0.13,1.33c0.05,0.86-1.3,1.18-1.65,0.33
			c-0.37-1.33-0.35-3.78-0.35-5.64c0-1.14,0.03-2.26,0.09-3.4c0.06-1.16,1.79-1.1,1.73,0c-0.09,1.55-0.12,3.08-0.08,4.77
			c0.74-0.69,1.45-1.43,2.08-2.24c0.79-0.74,1.96,0.42,1.23,1.23c-0.63,0.78-1.33,1.5-2.08,2.23c0.86,0.45,1.7,0.89,2.51,1.59
			C110.29,101.21,109.23,102.7,108.4,101.87z"/>
		<path class="st2" d="M116.27,101.36c-0.86,0.95-2.56,1.3-3.77,0.86c-0.96-0.33-1.7-1.16-1.98-2.2c-0.28-1.09-0.2-2.35,0.46-3.47
			c0.52-0.77,1.38-1.32,2.39-1.32c1.19,0,2.14,0.91,2.26,2.15c0.13,1.78-2.07,2.46-3.5,2c0.24,1.22,1.33,1.52,2.42,1.11
			c0.37-0.18,0.65-0.58,1.13-0.6C116.41,99.85,116.78,100.85,116.27,101.36z M113.26,96.95c-0.36,0.04-0.68,0.33-0.95,0.69
			c0.36,0.12,0.7,0.22,1.06,0.17C114.21,97.73,113.89,96.92,113.26,96.95z"/>
		<path class="st2" d="M118.37,93.09c0.1,0.55-0.18,1.69-0.42,1.91c-0.27,0.23-0.74,0.15-0.72-0.36c0.05-0.49,0.05-0.99,0.01-1.47
			C117.18,92.51,118.24,92.4,118.37,93.09z"/>
		<path class="st2" d="M121.71,97.05c0.43,0.24,0.91,0.42,1.33,0.72c1.01,0.63,1.7,1.89,1.25,3.13c-0.38,1.1-1.48,1.83-2.71,1.76
			c-0.75-0.04-1.52-0.27-2.19-0.92c-0.78-0.78,0.42-2.11,1.2-1.23c0.36,0.55,1.32,0.73,1.8,0.22c0.38-0.4,0.43-1.07-0.19-1.47
			c-0.43-0.31-0.96-0.51-1.44-0.79c-0.86-0.41-1.29-1.2-1.22-2.06c0.1-1.06,0.83-1.8,1.8-2.01c1.04-0.22,2.23,0.26,2.94,1.1
			c0.28,0.36,0.37,0.83,0,1.23c-0.14,0.15-0.41,0.26-0.61,0.26c-0.19,0-0.46-0.1-0.6-0.26c-0.32-0.35-0.75-0.64-1.27-0.67
			C121.06,96.07,121.11,96.75,121.71,97.05z"/>
	</g>
</g>
</svg>
