<?xml version="1.0" encoding="utf-8"?>
<!-- Generator: Adobe Illustrator 24.0.2, SVG Export Plug-In . SVG Version: 6.00 Build 0)  -->
<svg version="1.1" id="Capa_1" xmlns="http://www.w3.org/2000/svg" xmlns:xlink="http://www.w3.org/1999/xlink" x="0px" y="0px"
	 viewBox="0 0 608.6 106.4" style="enable-background:new 0 0 608.6 106.4;" xml:space="preserve">
<style type="text/css">
	.st0{fill:#FFFEF5;}
	.st1{fill:#FFD8A4;}
	.st2{fill:#F9C0D2;}
	.st3{fill:#FF8AAB;}
</style>
<rect x="-6.2" y="-3.8" class="st0" width="624.2" height="115.6"/>
<g>
	<path class="st3" d="M104.7,55.1c-1.3-4.2-4-7.1-8.2-8.5c4.5-6.2,4.4-12.2-0.3-17.1c-2.4-2.5-5.4-3.9-8.8-4.2
		c-4.5-0.3-8.2,1.2-11.2,4.5c-3.7-6.5-9.3-8.9-15.9-6.7c-3.3,1.1-5.9,3.3-7.6,6.4c-2.4,4.3-2.5,8.7-0.2,13.2c-4.2,0.9-6.6,3.1-8,4.9
		c-1.8,2.4-2.6,5.5-2.4,8.6c0.3,3.7,1.8,6.8,4.5,9.2c3.5,3.1,7.6,4.1,12.2,3.1c0.1,9.4,4.2,15.2,11.4,16c0.6,0.1,1.2,0.1,1.8,0.1
		c7.3,0,12.2-4.9,14.1-14.1c3.7,1.7,7.3,2.1,10.3,1.2c3-0.9,5.4-3.1,7.1-6.2C105.4,62.1,105.7,58.7,104.7,55.1z M59.7,65.7
		c-4.4,1.5-8.2,0.8-11.4-2.1c-2.2-2-3.4-4.5-3.7-7.6c-0.4-4.8,2.6-10.4,10-11l2-0.2L55.6,43c-2.7-4.2-3-8.3-0.7-12.3
		c1.4-2.6,3.5-4.3,6.3-5.2c5.9-2,10.6,0.5,13.7,7.1l0.9,2l1.2-1.8c2.6-3.7,6-5.3,10.2-5c2.8,0.2,5.3,1.4,7.2,3.4
		c4.1,4.3,3.8,9.6-1,15.3l-1.3,1.6l2,0.4c4.3,0.9,7,3.3,8.2,7.3c0.9,2.9,0.6,5.8-0.9,8.5c-1.4,2.6-3.3,4.3-5.7,5
		c-2.8,0.8-6.3,0.2-10-1.8l-1.5-0.8L84,68.5c-1.1,6.7-4.3,14.5-13.5,13.5c-6.2-0.6-9.5-6-9.1-15.1l0.1-1.8L59.7,65.7z"/>
	<path class="st3" d="M75.6,61.3L75.6,61.3c2.4,0,4.7-0.9,6.4-2.7c1.8-1.8,2.7-4.1,2.7-6.6c0-2.5-1-4.8-2.7-6.5
		c-1.7-1.7-4.1-2.7-6.6-2.7c-2.4,0-4.6,1-6.3,2.7c-1.7,1.7-2.6,4-2.6,6.5C66.6,57.2,70.6,61.3,75.6,61.3z M75.5,45.4
		c1.8,0,3.5,0.7,4.8,2c1.3,1.3,2,3,2,4.8c0,1.8-0.7,3.5-2,4.8c-1.2,1.2-2.9,1.9-4.6,1.9c-3.6,0-6.6-3-6.6-6.7c0-1.8,0.7-3.5,1.9-4.7
		C72.2,46.1,73.8,45.4,75.5,45.4l0-0.6L75.5,45.4z M75.6,60.7L75.6,60.7L75.6,60.7L75.6,60.7z"/>
</g>
<g>
	<path class="st2" d="M196.7,56.1c-1.3-4.2-4-7.1-8.2-8.5c4.5-6.2,4.4-12.2-0.3-17.1c-2.4-2.5-5.4-3.9-8.8-4.2
		c-4.5-0.3-8.2,1.2-11.2,4.5c-3.7-6.5-9.3-8.9-15.9-6.7c-3.3,1.1-5.9,3.3-7.6,6.4c-2.4,4.3-2.5,8.7-0.2,13.2c-4.2,0.9-6.6,3.1-8,4.9
		c-1.8,2.4-2.6,5.5-2.4,8.6c0.3,3.7,1.8,6.8,4.5,9.2c3.5,3.1,7.6,4.1,12.2,3.1c0.1,9.4,4.2,15.2,11.4,16c0.6,0.1,1.2,0.1,1.8,0.1
		c7.3,0,12.2-4.9,14.1-14.1c3.7,1.7,7.3,2.1,10.3,1.2c3-0.9,5.4-3.1,7.1-6.2C197.4,63.1,197.7,59.7,196.7,56.1z M151.7,66.7
		c-4.4,1.5-8.2,0.8-11.4-2.1c-2.2-2-3.4-4.5-3.7-7.6c-0.4-4.8,2.6-10.4,10-11l2-0.2l-1.1-1.7c-2.7-4.2-3-8.3-0.7-12.3
		c1.4-2.6,3.5-4.3,6.3-5.2c5.9-2,10.6,0.5,13.7,7.1l0.9,2l1.2-1.8c2.6-3.7,6-5.3,10.2-5c2.8,0.2,5.3,1.4,7.2,3.4
		c4.1,4.3,3.8,9.6-1,15.3l-1.3,1.6l2,0.4c4.3,0.9,7,3.3,8.2,7.3c0.9,2.9,0.6,5.8-0.9,8.5c-1.4,2.6-3.3,4.3-5.7,5
		c-2.8,0.8-6.3,0.2-10-1.8l-1.5-0.8l-0.3,1.7c-1.1,6.7-4.3,14.5-13.5,13.5c-6.2-0.6-9.5-6-9.1-15.1l0.1-1.8L151.7,66.7z"/>
	<path class="st2" d="M167.6,62.3L167.6,62.3c2.4,0,4.7-0.9,6.4-2.7c1.8-1.8,2.7-4.1,2.7-6.6c0-2.5-1-4.8-2.7-6.5
		c-1.7-1.7-4.1-2.7-6.6-2.7c-2.4,0-4.6,1-6.3,2.7c-1.7,1.7-2.6,4-2.6,6.5C158.6,58.2,162.6,62.3,167.6,62.3z M167.5,46.4
		c1.8,0,3.5,0.7,4.8,2c1.3,1.3,2,3,2,4.8c0,1.8-0.7,3.5-2,4.8c-1.2,1.2-2.9,1.9-4.6,1.9c-3.6,0-6.6-3-6.6-6.7c0-1.8,0.7-3.5,1.9-4.7
		C164.2,47.1,165.8,46.4,167.5,46.4l0-0.6L167.5,46.4z M167.6,61.7L167.6,61.7L167.6,61.7L167.6,61.7z"/>
</g>
<g>
	<path class="st1" d="M285.7,55.1c-1.3-4.2-4-7.1-8.2-8.5c4.5-6.2,4.4-12.2-0.3-17.1c-2.4-2.5-5.4-3.9-8.8-4.2
		c-4.5-0.3-8.2,1.2-11.2,4.5c-3.7-6.5-9.3-8.9-15.9-6.7c-3.3,1.1-5.9,3.3-7.6,6.4c-2.4,4.3-2.5,8.7-0.2,13.2c-4.2,0.9-6.6,3.1-8,4.9
		c-1.8,2.4-2.6,5.5-2.4,8.6c0.3,3.7,1.8,6.8,4.5,9.2c3.5,3.1,7.6,4.1,12.2,3.1c0.1,9.4,4.2,15.2,11.4,16c0.6,0.1,1.2,0.1,1.8,0.1
		c7.3,0,12.2-4.9,14.1-14.1c3.7,1.7,7.3,2.1,10.3,1.2c3-0.9,5.4-3.1,7.1-6.2C286.4,62.1,286.7,58.7,285.7,55.1z M240.7,65.7
		c-4.4,1.5-8.2,0.8-11.4-2.1c-2.2-2-3.4-4.5-3.7-7.6c-0.4-4.8,2.6-10.4,10-11l2-0.2l-1.1-1.7c-2.7-4.2-3-8.3-0.7-12.3
		c1.4-2.6,3.5-4.3,6.3-5.2c5.9-2,10.6,0.5,13.7,7.1l0.9,2l1.2-1.8c2.6-3.7,6-5.3,10.2-5c2.8,0.2,5.3,1.4,7.2,3.4
		c4.1,4.3,3.8,9.6-1,15.3l-1.3,1.6l2,0.4c4.3,0.9,7,3.3,8.2,7.3c0.9,2.9,0.6,5.8-0.9,8.5c-1.4,2.6-3.3,4.3-5.7,5
		c-2.8,0.8-6.3,0.2-10-1.8l-1.5-0.8l-0.3,1.7c-1.1,6.7-4.3,14.5-13.5,13.5c-6.2-0.6-9.5-6-9.1-15.1l0.1-1.8L240.7,65.7z"/>
	<path class="st1" d="M256.6,61.3L256.6,61.3c2.4,0,4.7-0.9,6.4-2.7c1.8-1.8,2.7-4.1,2.7-6.6c0-2.5-1-4.8-2.7-6.5
		c-1.7-1.7-4.1-2.7-6.6-2.7c-2.4,0-4.6,1-6.3,2.7c-1.7,1.7-2.6,4-2.6,6.5C247.6,57.2,251.6,61.3,256.6,61.3z M256.5,45.4
		c1.8,0,3.5,0.7,4.8,2c1.3,1.3,2,3,2,4.8c0,1.8-0.7,3.5-2,4.8c-1.2,1.2-2.9,1.9-4.6,1.9c-3.6,0-6.6-3-6.6-6.7c0-1.8,0.7-3.5,1.9-4.7
		C253.2,46.1,254.8,45.4,256.5,45.4l0-0.6L256.5,45.4z M256.6,60.7L256.6,60.7L256.6,60.7L256.6,60.7z"/>
</g>
<g>
	<path class="st3" d="M381.6,55.4c-1.3-4.2-4-7.1-8.2-8.5c4.5-6.2,4.4-12.2-0.3-17.1c-2.4-2.5-5.4-3.9-8.8-4.2
		c-4.5-0.3-8.2,1.2-11.2,4.5c-3.7-6.5-9.3-8.9-15.9-6.7c-3.3,1.1-5.9,3.3-7.6,6.4c-2.4,4.3-2.5,8.7-0.2,13.2c-4.2,0.9-6.6,3.1-8,4.9
		c-1.8,2.4-2.6,5.5-2.4,8.6c0.3,3.7,1.8,6.8,4.5,9.2c3.5,3.1,7.6,4.1,12.2,3.1c0.1,9.4,4.2,15.2,11.4,16c0.6,0.1,1.2,0.1,1.8,0.1
		c7.3,0,12.2-4.9,14.1-14.1c3.7,1.7,7.3,2.1,10.3,1.2c3-0.9,5.4-3.1,7.1-6.2C382.3,62.5,382.6,59,381.6,55.4z M336.6,66
		c-4.4,1.5-8.2,0.8-11.4-2.1c-2.2-2-3.4-4.5-3.7-7.6c-0.4-4.8,2.6-10.4,10-11l2-0.2l-1.1-1.7c-2.7-4.2-3-8.3-0.7-12.3
		c1.4-2.6,3.5-4.3,6.3-5.2c5.9-2,10.6,0.5,13.7,7.1l0.9,2l1.2-1.8c2.6-3.7,6-5.3,10.2-5c2.8,0.2,5.3,1.4,7.2,3.4
		c4.1,4.3,3.8,9.6-1,15.3l-1.3,1.6l2,0.4c4.3,0.9,7,3.3,8.2,7.3c0.9,2.9,0.6,5.8-0.9,8.5c-1.4,2.6-3.3,4.3-5.7,5
		c-2.8,0.8-6.3,0.2-10-1.8l-1.5-0.8l-0.3,1.7c-1.1,6.7-4.3,14.5-13.5,13.5c-6.2-0.6-9.5-6-9.1-15.1l0.1-1.8L336.6,66z"/>
	<path class="st3" d="M352.5,61.7L352.5,61.7c2.4,0,4.7-0.9,6.4-2.7c1.8-1.8,2.7-4.1,2.7-6.6c0-2.5-1-4.8-2.7-6.5
		c-1.7-1.7-4.1-2.7-6.6-2.7c-2.4,0-4.6,1-6.3,2.7c-1.7,1.7-2.6,4-2.6,6.5C343.5,57.6,347.6,61.7,352.5,61.7z M352.4,45.7
		c1.8,0,3.5,0.7,4.8,2c1.3,1.3,2,3,2,4.8c0,1.8-0.7,3.5-2,4.8c-1.2,1.2-2.9,1.9-4.6,1.9c-3.6,0-6.6-3-6.6-6.7c0-1.8,0.7-3.5,1.9-4.7
		C349.1,46.5,350.7,45.8,352.4,45.7l0-0.6L352.4,45.7z M352.5,61.1L352.5,61.1L352.5,61.1L352.5,61.1z"/>
</g>
<g>
	<path class="st2" d="M473.6,56.4c-1.3-4.2-4-7.1-8.2-8.5c4.5-6.2,4.4-12.2-0.3-17.1c-2.4-2.5-5.4-3.9-8.8-4.2
		c-4.5-0.3-8.2,1.2-11.2,4.5c-3.7-6.5-9.3-8.9-15.9-6.7c-3.3,1.1-5.9,3.3-7.6,6.4c-2.4,4.3-2.5,8.7-0.2,13.2c-4.2,0.9-6.6,3.1-8,4.9
		c-1.8,2.4-2.6,5.5-2.4,8.6c0.3,3.7,1.8,6.8,4.5,9.2c3.5,3.1,7.6,4.1,12.2,3.1c0.1,9.4,4.2,15.2,11.4,16c0.6,0.1,1.2,0.1,1.8,0.1
		c7.3,0,12.2-4.9,14.1-14.1c3.7,1.7,7.3,2.1,10.3,1.2c3-0.9,5.4-3.1,7.1-6.2C474.3,63.5,474.6,60,473.6,56.4z M428.6,67
		c-4.4,1.5-8.2,0.8-11.4-2.1c-2.2-2-3.4-4.5-3.7-7.6c-0.4-4.8,2.6-10.4,10-11l2-0.2l-1.1-1.7c-2.7-4.2-3-8.3-0.7-12.3
		c1.4-2.6,3.5-4.3,6.3-5.2c5.9-2,10.6,0.5,13.7,7.1l0.9,2l1.2-1.8c2.6-3.7,6-5.3,10.2-5c2.8,0.2,5.3,1.4,7.2,3.4
		c4.1,4.3,3.8,9.6-1,15.3l-1.3,1.6l2,0.4c4.3,0.9,7,3.3,8.2,7.3c0.9,2.9,0.6,5.8-0.9,8.5c-1.4,2.6-3.3,4.3-5.7,5
		c-2.8,0.8-6.3,0.2-10-1.8l-1.5-0.8l-0.3,1.7c-1.1,6.7-4.3,14.5-13.5,13.5c-6.2-0.6-9.5-6-9.1-15.1l0.1-1.8L428.6,67z"/>
	<path class="st2" d="M444.5,62.7L444.5,62.7c2.4,0,4.7-0.9,6.4-2.7c1.8-1.8,2.7-4.1,2.7-6.6c0-2.5-1-4.8-2.7-6.5
		c-1.7-1.7-4.1-2.7-6.6-2.7c-2.4,0-4.6,1-6.3,2.7c-1.7,1.7-2.6,4-2.6,6.5C435.5,58.6,439.6,62.7,444.5,62.7z M444.4,46.7
		c1.8,0,3.5,0.7,4.8,2c1.3,1.3,2,3,2,4.8c0,1.8-0.7,3.5-2,4.8c-1.2,1.2-2.9,1.9-4.6,1.9c-3.6,0-6.6-3-6.6-6.7c0-1.8,0.7-3.5,1.9-4.7
		C441.1,47.5,442.7,46.8,444.4,46.7l0-0.6L444.4,46.7z M444.5,62.1L444.5,62.1L444.5,62.1L444.5,62.1z"/>
</g>
<g>
	<path class="st1" d="M562.6,55.4c-1.3-4.2-4-7.1-8.2-8.5c4.5-6.2,4.4-12.2-0.3-17.1c-2.4-2.5-5.4-3.9-8.8-4.2
		c-4.5-0.3-8.2,1.2-11.2,4.5c-3.7-6.5-9.3-8.9-15.9-6.7c-3.3,1.1-5.9,3.3-7.6,6.4c-2.4,4.3-2.5,8.7-0.2,13.2c-4.2,0.9-6.6,3.1-8,4.9
		c-1.8,2.4-2.6,5.5-2.4,8.6c0.3,3.7,1.8,6.8,4.5,9.2c3.5,3.1,7.6,4.1,12.2,3.1c0.1,9.4,4.2,15.2,11.4,16c0.6,0.1,1.2,0.1,1.8,0.1
		c7.3,0,12.2-4.9,14.1-14.1c3.7,1.7,7.3,2.1,10.3,1.2c3-0.9,5.4-3.1,7.1-6.2C563.3,62.5,563.6,59,562.6,55.4z M517.6,66
		c-4.4,1.5-8.2,0.8-11.4-2.1c-2.2-2-3.4-4.5-3.7-7.6c-0.4-4.8,2.6-10.4,10-11l2-0.2l-1.1-1.7c-2.7-4.2-3-8.3-0.7-12.3
		c1.4-2.6,3.5-4.3,6.3-5.2c5.9-2,10.6,0.5,13.7,7.1l0.9,2l1.2-1.8c2.6-3.7,6-5.3,10.2-5c2.8,0.2,5.3,1.4,7.2,3.4
		c4.1,4.3,3.8,9.6-1,15.3l-1.3,1.6l2,0.4c4.3,0.9,7,3.3,8.2,7.3c0.9,2.9,0.6,5.8-0.9,8.5c-1.4,2.6-3.3,4.3-5.7,5
		c-2.8,0.8-6.3,0.2-10-1.8l-1.5-0.8l-0.3,1.7c-1.1,6.7-4.3,14.5-13.5,13.5c-6.2-0.6-9.5-6-9.1-15.1l0.1-1.8L517.6,66z"/>
	<path class="st1" d="M533.5,61.7L533.5,61.7c2.4,0,4.7-0.9,6.4-2.7c1.8-1.8,2.7-4.1,2.7-6.6c0-2.5-1-4.8-2.7-6.5
		c-1.7-1.7-4.1-2.7-6.6-2.7c-2.4,0-4.6,1-6.3,2.7c-1.7,1.7-2.6,4-2.6,6.5C524.5,57.6,528.6,61.7,533.5,61.7z M533.4,45.7
		c1.8,0,3.5,0.7,4.8,2c1.3,1.3,2,3,2,4.8c0,1.8-0.7,3.5-2,4.8c-1.2,1.2-2.9,1.9-4.6,1.9c-3.6,0-6.6-3-6.6-6.7c0-1.8,0.7-3.5,1.9-4.7
		C530.1,46.5,531.7,45.8,533.4,45.7l0-0.6L533.4,45.7z M533.5,61.1L533.5,61.1L533.5,61.1L533.5,61.1z"/>
</g>
</svg>
