<?xml version="1.0" encoding="utf-8"?>
<!-- Generator: Adobe Illustrator 24.0.2, SVG Export Plug-In . SVG Version: 6.00 Build 0)  -->
<svg version="1.1" id="Capa_1" xmlns="http://www.w3.org/2000/svg" xmlns:xlink="http://www.w3.org/1999/xlink" x="0px" y="0px"
	 viewBox="0 0 168.3 283.5" style="enable-background:new 0 0 168.3 283.5;" xml:space="preserve">
<style type="text/css">
	.st0{fill:#FFFEF5;}
	.st1{fill:#FFD8A4;}
	.st2{fill:#F9C0D2;}
	.st3{fill:#FF8AAB;}
</style>
<rect x="-2.6" y="-3.8" class="st0" width="174.7" height="293.1"/>
<g>
	<path class="st1" d="M124.2,234.1c-1.1-3.8-3.6-6.4-7.4-7.6c4-5.6,3.9-11-0.2-15.3c-2.2-2.3-4.8-3.5-7.9-3.8c-4-0.3-7.4,1.1-10,4.1
		c-3.3-5.9-8.3-8-14.3-6c-3,1-5.3,2.9-6.9,5.7c-2.2,3.9-2.2,7.9-0.2,11.9c-3.8,0.8-6,2.8-7.2,4.4c-1.6,2.2-2.4,5-2.2,7.7
		c0.3,3.3,1.6,6.1,4,8.3c3.1,2.8,6.8,3.7,10.9,2.8c0.1,8.5,3.8,13.7,10.2,14.4c0.6,0.1,1.1,0.1,1.7,0.1c6.6,0,10.9-4.4,12.7-12.6
		c3.4,1.5,6.5,1.9,9.3,1.1c2.7-0.8,4.9-2.7,6.4-5.6C124.8,240.5,125.1,237.3,124.2,234.1z M83.7,243.6c-3.9,1.3-7.4,0.7-10.2-1.9
		c-2-1.8-3.1-4.1-3.3-6.8c-0.3-4.4,2.3-9.3,9-9.9l1.8-0.2l-1-1.5c-2.5-3.8-2.7-7.4-0.6-11c1.3-2.3,3.2-3.9,5.6-4.7
		c5.3-1.8,9.6,0.4,12.3,6.4l0.8,1.8l1.1-1.6c2.4-3.3,5.4-4.8,9.2-4.5c2.5,0.2,4.7,1.2,6.5,3.1c3.7,3.8,3.4,8.6-0.9,13.7l-1.2,1.4
		l1.8,0.4c3.9,0.9,6.3,3,7.4,6.5c0.8,2.6,0.5,5.2-0.8,7.6c-1.3,2.4-3,3.9-5.1,4.5c-2.5,0.8-5.6,0.2-8.9-1.6l-1.4-0.8l-0.2,1.6
		c-1,6-3.8,13-12.1,12.2c-5.6-0.6-8.5-5.4-8.2-13.6l0.1-1.6L83.7,243.6z"/>
	<path class="st1" d="M98,239.8L98,239.8c2.2,0,4.2-0.8,5.7-2.4c1.6-1.6,2.4-3.7,2.4-5.9c0-2.2-0.9-4.3-2.4-5.9
		c-1.6-1.6-3.6-2.4-5.9-2.4c-2.1,0-4.1,0.9-5.7,2.5c-1.5,1.6-2.3,3.6-2.3,5.8C89.9,236,93.6,239.8,98,239.8z M97.9,225.4
		c1.6,0,3.2,0.6,4.3,1.8c1.1,1.1,1.8,2.7,1.8,4.3c0,1.6-0.6,3.2-1.8,4.3c-1.1,1.1-2.6,1.7-4.1,1.7c-3.3,0-5.9-2.7-5.9-6.1
		c0-1.6,0.6-3.1,1.7-4.3C94.9,226.1,96.4,225.4,97.9,225.4l0-0.5L97.9,225.4z M98.1,239.2L98.1,239.2L98.1,239.2L98.1,239.2z"/>
</g>
<g>
	<path class="st2" d="M151.9,50.1c-1-3.5-3.3-5.8-6.8-7c3.7-5.1,3.6-10.1-0.2-14.1c-2-2.1-4.5-3.2-7.3-3.5c-3.7-0.3-6.8,1-9.2,3.7
		c-3-5.4-7.7-7.4-13.1-5.5c-2.7,0.9-4.9,2.7-6.3,5.3c-2,3.5-2,7.2-0.1,10.9c-3.5,0.7-5.5,2.6-6.6,4c-1.5,2-2.2,4.6-2,7.1
		c0.2,3.1,1.5,5.6,3.7,7.6c2.9,2.6,6.3,3.4,10.1,2.5c0.1,7.8,3.5,12.6,9.4,13.2c0.5,0.1,1,0.1,1.5,0.1c6,0,10.1-4,11.6-11.6
		c3.1,1.4,6,1.8,8.5,1c2.5-0.7,4.5-2.5,5.9-5.2C152.4,56,152.7,53.1,151.9,50.1z M114.7,58.9c-3.6,1.2-6.8,0.6-9.4-1.7
		c-1.8-1.6-2.8-3.7-3-6.3c-0.3-4,2.1-8.6,8.3-9.1l1.7-0.2l-0.9-1.4c-2.3-3.5-2.4-6.8-0.6-10.1c1.2-2.1,2.9-3.6,5.2-4.3
		c4.9-1.6,8.8,0.4,11.3,5.9l0.7,1.6l1-1.4c2.2-3.1,4.9-4.4,8.4-4.2c2.3,0.2,4.3,1.1,6,2.8c3.4,3.5,3.1,7.9-0.8,12.6l-1.1,1.3
		l1.7,0.4c3.6,0.8,5.8,2.7,6.8,6c0.7,2.4,0.5,4.8-0.7,7c-1.2,2.2-2.7,3.6-4.7,4.2c-2.3,0.7-5.2,0.2-8.2-1.5l-1.3-0.7l-0.2,1.4
		c-0.9,5.5-3.5,12-11.2,11.2c-5.1-0.5-7.8-5-7.5-12.5l0.1-1.5L114.7,58.9z"/>
	<path class="st2" d="M127.9,55.3L127.9,55.3c2,0,3.8-0.8,5.3-2.2c1.4-1.4,2.2-3.4,2.2-5.4c0-2-0.8-4-2.2-5.4
		c-1.4-1.4-3.3-2.2-5.4-2.2c-2,0-3.8,0.8-5.2,2.3c-1.4,1.4-2.1,3.3-2.1,5.3C120.4,51.9,123.7,55.3,127.9,55.3z M127.7,42.1
		c1.5,0,2.9,0.6,3.9,1.6c1,1,1.6,2.4,1.6,3.9c0,1.5-0.6,2.9-1.6,4c-1,1-2.4,1.6-3.8,1.6c-3,0-5.4-2.5-5.4-5.6c0-1.5,0.6-2.9,1.6-3.9
		C125,42.7,126.3,42.1,127.7,42.1l0-0.5L127.7,42.1z M127.9,54.8L127.9,54.8L127.9,54.8L127.9,54.8z"/>
</g>
<g>
	<path class="st3" d="M73.4,112.9c-1.2-4.2-4-7-8.1-8.4c4.4-6.1,4.3-12.1-0.3-16.9c-2.4-2.5-5.3-3.9-8.7-4.1
		c-4.4-0.3-8.1,1.2-11,4.5c-3.6-6.5-9.2-8.8-15.7-6.6c-3.3,1.1-5.8,3.2-7.5,6.3c-2.4,4.2-2.5,8.6-0.2,13.1c-4.2,0.8-6.6,3.1-7.9,4.8
		c-1.7,2.4-2.6,5.5-2.4,8.5c0.3,3.7,1.8,6.7,4.4,9.1c3.4,3.1,7.5,4.1,12,3c0.1,9.3,4.2,15.1,11.2,15.8c0.6,0.1,1.2,0.1,1.8,0.1
		c7.2,0,12-4.8,13.9-13.9c3.7,1.7,7.2,2.1,10.2,1.2c2.9-0.9,5.4-3,7.1-6.2C74.1,119.9,74.5,116.4,73.4,112.9z M29,123.3
		c-4.3,1.4-8.1,0.8-11.3-2.1c-2.2-2-3.4-4.5-3.6-7.5c-0.4-4.8,2.6-10.3,9.9-10.9l2-0.2l-1.1-1.7c-2.7-4.2-2.9-8.2-0.7-12.1
		c1.4-2.5,3.5-4.3,6.2-5.2c5.8-2,10.5,0.5,13.6,7.1l0.9,1.9l1.2-1.7c2.6-3.7,5.9-5.3,10.1-5c2.8,0.2,5.2,1.4,7.2,3.4
		c4.1,4.2,3.7,9.4-1,15.1l-1.3,1.6l2,0.4c4.3,0.9,6.9,3.3,8.1,7.2c0.9,2.9,0.6,5.7-0.9,8.4c-1.4,2.6-3.3,4.3-5.6,5
		c-2.8,0.8-6.2,0.2-9.8-1.8l-1.5-0.8l-0.3,1.7c-1.1,6.6-4.2,14.3-13.4,13.4c-6.2-0.6-9.4-5.9-9-14.9l0.1-1.8L29,123.3z"/>
	<path class="st3" d="M44.7,119.1L44.7,119.1c2.4,0,4.6-0.9,6.3-2.6c1.7-1.7,2.7-4,2.7-6.5c0-2.5-1-4.7-2.7-6.5
		c-1.7-1.7-4-2.6-6.5-2.6c-2.3,0-4.6,1-6.2,2.7c-1.7,1.7-2.6,4-2.6,6.4C35.7,115,39.8,119.1,44.7,119.1z M44.5,103.3
		c1.8,0,3.5,0.7,4.7,1.9c1.3,1.2,2,2.9,2,4.7c0,1.8-0.7,3.5-2,4.8c-1.2,1.2-2.8,1.9-4.6,1.9c-3.6,0-6.5-3-6.5-6.7
		c0-1.8,0.7-3.4,1.9-4.7C41.2,104,42.8,103.3,44.5,103.3l0-0.6L44.5,103.3z M44.7,118.5L44.7,118.5L44.7,118.5L44.7,118.5z"/>
</g>
</svg>
