<?xml version="1.0" encoding="utf-8"?>
<!-- Generator: Adobe Illustrator 24.0.2, SVG Export Plug-In . SVG Version: 6.00 Build 0)  -->
<svg version="1.1" id="Capa_1" xmlns="http://www.w3.org/2000/svg" xmlns:xlink="http://www.w3.org/1999/xlink" x="0px" y="0px"
	 viewBox="0 0 168.3 283.5" style="enable-background:new 0 0 168.3 283.5;" xml:space="preserve">
<style type="text/css">
	.st0{fill:#FFFEF5;}
	.st1{fill:#FFD8A4;}
	.st2{fill:#F9C0D2;}
	.st3{fill:#FF8AAB;}
</style>
<rect x="-2.6" y="-3.3" class="st0" width="176.5" height="289.4"/>
<g>
	<path class="st3" d="M69.1,53.8c-1.1-3.6-3.4-5.9-6.9-7.1c3.8-5.2,3.7-10.3-0.2-14.3c-2-2.1-4.5-3.3-7.4-3.5
		c-3.7-0.3-6.9,1-9.4,3.8c-3.1-5.5-7.8-7.5-13.3-5.6c-2.8,0.9-4.9,2.7-6.4,5.4c-2,3.6-2.1,7.3-0.1,11.1c-3.6,0.7-5.6,2.6-6.7,4.1
		c-1.5,2-2.2,4.6-2,7.2c0.2,3.1,1.5,5.7,3.8,7.8c2.9,2.6,6.4,3.5,10.2,2.6c0.1,7.9,3.5,12.8,9.6,13.4c0.5,0.1,1,0.1,1.5,0.1
		c6.2,0,10.2-4.1,11.8-11.8c3.1,1.4,6.1,1.8,8.7,1c2.5-0.8,4.6-2.6,6-5.2C69.7,59.7,70,56.8,69.1,53.8z M31.3,62.6
		c-3.7,1.2-6.9,0.6-9.6-1.8c-1.9-1.7-2.9-3.8-3.1-6.4c-0.3-4.1,2.2-8.7,8.4-9.3l1.7-0.2l-0.9-1.4c-2.3-3.6-2.5-6.9-0.6-10.3
		c1.2-2.1,3-3.6,5.3-4.4c5-1.7,8.9,0.4,11.5,6l0.8,1.6l1-1.5c2.2-3.1,5-4.5,8.6-4.2c2.4,0.2,4.4,1.1,6.1,2.9c3.5,3.6,3.2,8-0.9,12.8
		l-1.1,1.3l1.7,0.4c3.7,0.8,5.9,2.8,6.9,6.1c0.7,2.4,0.5,4.9-0.7,7.2c-1.2,2.2-2.8,3.6-4.8,4.2c-2.4,0.7-5.3,0.2-8.4-1.5L52,63.5
		L51.7,65c-0.9,5.6-3.6,12.2-11.4,11.4c-5.2-0.5-8-5.1-7.7-12.7l0.1-1.5L31.3,62.6z"/>
	<path class="st3" d="M44.7,59L44.7,59c2,0,3.9-0.8,5.4-2.2c1.5-1.5,2.3-3.4,2.3-5.5c0-2.1-0.8-4-2.3-5.5c-1.5-1.4-3.4-2.2-5.5-2.2
		c-2,0-3.9,0.8-5.3,2.3c-1.4,1.5-2.2,3.4-2.2,5.4C37.1,55.5,40.5,59,44.7,59z M44.6,45.6c1.5,0,2.9,0.6,4,1.6c1.1,1.1,1.7,2.5,1.7,4
		c0,1.5-0.6,3-1.7,4c-1,1-2.4,1.6-3.9,1.6c-3,0-5.5-2.5-5.5-5.7c0-1.5,0.6-2.9,1.6-4C41.8,46.2,43.1,45.6,44.6,45.6l0-0.5L44.6,45.6
		z M44.7,58.5L44.7,58.5L44.7,58.5L44.7,58.5z"/>
</g>
<g>
	<path class="st1" d="M150.5,126.9c-1.3-4.3-4-7.1-8.2-8.5c4.5-6.2,4.4-12.3-0.3-17.2c-2.4-2.5-5.4-3.9-8.9-4.2
		c-4.5-0.3-8.3,1.2-11.2,4.5c-3.7-6.6-9.3-9-16-6.7c-3.3,1.1-5.9,3.3-7.7,6.4c-2.4,4.3-2.5,8.8-0.2,13.3c-4.3,0.9-6.7,3.1-8,4.9
		c-1.8,2.4-2.7,5.6-2.4,8.6c0.3,3.7,1.8,6.9,4.5,9.3c3.5,3.1,7.6,4.2,12.3,3.1c0.1,9.5,4.2,15.3,11.4,16.1c0.6,0.1,1.3,0.1,1.9,0.1
		c7.4,0,12.3-4.9,14.2-14.2c3.8,1.7,7.3,2.1,10.4,1.2c3-0.9,5.5-3.1,7.2-6.3C151.2,134,151.6,130.5,150.5,126.9z M105.2,137.6
		c-4.4,1.5-8.3,0.8-11.5-2.1c-2.2-2-3.5-4.6-3.7-7.6c-0.4-4.9,2.6-10.4,10.1-11.1l2.1-0.2l-1.1-1.7c-2.7-4.3-3-8.3-0.7-12.4
		c1.4-2.6,3.6-4.3,6.3-5.3c5.9-2,10.7,0.5,13.8,7.2l0.9,2l1.2-1.8c2.6-3.7,6-5.4,10.3-5.1c2.8,0.2,5.3,1.4,7.3,3.4
		c4.1,4.3,3.8,9.6-1,15.4l-1.3,1.6l2,0.4c4.4,1,7.1,3.4,8.2,7.3c0.9,2.9,0.6,5.8-0.9,8.6c-1.4,2.6-3.3,4.4-5.7,5.1
		c-2.8,0.9-6.3,0.2-10-1.8l-1.6-0.8l-0.3,1.7c-1.1,6.7-4.3,14.6-13.6,13.6c-6.3-0.6-9.5-6.1-9.2-15.2l0.1-1.8L105.2,137.6z"/>
	<path class="st1" d="M121.3,133.2L121.3,133.2c2.4,0,4.7-1,6.4-2.7c1.8-1.8,2.7-4.1,2.7-6.6c0-2.5-1-4.8-2.7-6.6
		c-1.7-1.7-4.1-2.7-6.6-2.7c-2.4,0-4.6,1-6.3,2.8c-1.7,1.8-2.6,4.1-2.6,6.5C112.2,129,116.3,133.2,121.3,133.2z M121.1,117.1
		c1.8,0,3.5,0.7,4.8,2c1.3,1.3,2,3,2,4.8c0,1.8-0.7,3.5-2,4.8c-1.3,1.3-2.9,1.9-4.6,1.9c-3.6,0-6.6-3.1-6.6-6.8
		c0-1.8,0.7-3.5,1.9-4.8C117.8,117.9,119.4,117.2,121.1,117.1l0-0.6L121.1,117.1z M121.3,132.6L121.3,132.6L121.3,132.6L121.3,132.6
		z"/>
</g>
<g>
	<path class="st2" d="M93.5,239.3c-1.1-3.6-3.4-6-6.9-7.2c3.8-5.2,3.7-10.3-0.2-14.4c-2-2.1-4.6-3.3-7.5-3.5c-3.8-0.3-6.9,1-9.4,3.8
		c-3.1-5.5-7.8-7.5-13.4-5.6c-2.8,0.9-5,2.8-6.4,5.4c-2,3.6-2.1,7.4-0.1,11.2c-3.6,0.7-5.6,2.6-6.7,4.1c-1.5,2-2.2,4.7-2,7.2
		c0.2,3.1,1.5,5.8,3.8,7.8c2.9,2.6,6.4,3.5,10.3,2.6c0.1,8,3.6,12.9,9.6,13.5c0.5,0.1,1.1,0.1,1.6,0.1c6.2,0,10.3-4.1,11.9-11.9
		c3.1,1.4,6.2,1.8,8.7,1c2.5-0.8,4.6-2.6,6-5.3C94.1,245.3,94.4,242.3,93.5,239.3z M55.5,248.2c-3.7,1.2-6.9,0.6-9.6-1.8
		c-1.9-1.7-2.9-3.8-3.1-6.4c-0.3-4.1,2.2-8.8,8.4-9.3l1.7-0.2l-0.9-1.5c-2.3-3.6-2.5-7-0.6-10.4c1.2-2.2,3-3.6,5.3-4.4
		c5-1.7,9,0.4,11.6,6l0.8,1.6l1-1.5c2.2-3.1,5-4.5,8.6-4.2c2.4,0.2,4.4,1.2,6.1,2.9c3.5,3.6,3.2,8.1-0.9,12.9l-1.1,1.3l1.7,0.4
		c3.7,0.8,5.9,2.8,6.9,6.1c0.7,2.5,0.5,4.9-0.8,7.2c-1.2,2.2-2.8,3.7-4.8,4.2c-2.4,0.7-5.3,0.2-8.4-1.5l-1.3-0.7l-0.2,1.5
		c-0.9,5.7-3.6,12.2-11.4,11.4c-5.3-0.5-8-5.1-7.7-12.8l0.1-1.5L55.5,248.2z"/>
	<path class="st2" d="M69,244.6L69,244.6c2,0,3.9-0.8,5.4-2.2c1.5-1.5,2.3-3.5,2.3-5.5c0-2.1-0.8-4.1-2.3-5.5
		c-1.5-1.5-3.4-2.3-5.5-2.3c-2,0-3.9,0.8-5.3,2.3c-1.4,1.5-2.2,3.4-2.2,5.5C61.3,241.1,64.8,244.6,69,244.6z M68.8,231.1
		c1.5,0,3,0.6,4,1.6c1.1,1.1,1.7,2.5,1.7,4c0,1.5-0.6,3-1.7,4.1c-1.1,1.1-2.4,1.6-3.9,1.6c-3.1,0-5.6-2.6-5.6-5.7
		c0-1.5,0.6-2.9,1.6-4C66,231.7,67.4,231.1,68.8,231.1l0-0.5L68.8,231.1z M69,244.1L69,244.1L69,244.1L69,244.1z"/>
</g>
</svg>
