<?xml version="1.0" encoding="utf-8"?>
<!-- Generator: Adobe Illustrator 24.0.2, SVG Export Plug-In . SVG Version: 6.00 Build 0)  -->
<svg version="1.1" id="Capa_1" xmlns="http://www.w3.org/2000/svg" xmlns:xlink="http://www.w3.org/1999/xlink" x="0px" y="0px"
	 viewBox="0 0 204.9 103.7" style="enable-background:new 0 0 204.9 103.7;" xml:space="preserve">
<style type="text/css">
	.st0{fill:#FF8AAB;}
	.st1{fill:#FFFEF5;}
	.st2{fill:#FFD8A4;}
	.st3{fill:#F9C0D2;}
	.st4{fill:#FFFFFF;}
</style>
<rect x="-6.8" y="-3.8" class="st0" width="214.4" height="107.5"/>
<g>
	<g>
		<path class="st4" d="M32.2,59.4C32.2,59.4,32.2,59.4,32.2,59.4C32.2,59.4,32.2,59.4,32.2,59.4C32.2,59.4,32.2,59.4,32.2,59.4z"/>
		<polygon class="st4" points="85.9,44.7 85.9,44.7 85.9,44.7 85.9,44.7 		"/>
		<path class="st4" d="M70.9,48.1c2.8-1.6,5.6-3.3,8.3-5c1.1-0.7,2.5-1.4,3.5-1.8c0.9-0.4,1.9-0.7,2.9-0.9c0.4-0.1,1-0.2,1.2-0.2
			c0.3,0,0.5,0,0.8,0c0.1,0,0.5,0,0.5,0c0.2,0,0.4,0.1,0.6,0.1c0.3,0.1,0.1,0,0.4,0.1c0.4,0.2,0.5,0.3,0.7,0.7
			c0.2,0.4,0.4,1,0.4,1.5c0,0.1,0,0.2,0,0.4c0,0.1,0,0.1,0,0.2c0,0.2-0.1,0.3-0.1,0.5c0,0.1-0.1,0.2-0.1,0.3c0,0,0,0,0,0.1
			c0,0,0,0,0,0c-0.2,0.5-0.2,0.5-0.7,0.8c0.2-0.2-0.4,0.2-0.3,0.1c-0.3,0.1-0.6,0.2-0.8,0.2c-0.4,0-0.7,0-1.1,0c-0.1,0-0.2,0-0.4,0
			c-0.1,0-0.3,0-0.4-0.1c0,0,0,0-0.1,0c-0.1-0.1-0.2-0.1-0.2-0.2c0,0,0,0,0,0c0,0-0.1-0.1-0.1-0.1c0.4-0.2,0.9-0.4,1.3-0.5
			c1.8-0.4,1-3.2-0.8-2.8c-1.5,0.4-3.4,1.2-3.5,3c-0.1,1,0.5,2,1.2,2.7c0.9,0.9,2.7,1,3.9,0.8c1.3-0.1,2.5-0.5,3.4-1.5
			c1-1.1,1.5-2.7,1.4-4.1c-0.2-2.6-1.7-4.6-4.3-5c-4.2-0.6-8.5,1.8-12,4c-3,1.9-6.1,3.7-9.2,5.4c-0.3-5.9-1.4-11.8-2.8-17.5
			c-0.5-1.9-1-3.8-1.6-5.7c-0.5-1.4-2.9-1.3-2.8,0.4c0.4,7.1-1.9,14.4-5,20.8c-0.7,1.4-1.5,2.8-2.3,4.1c-1.8-0.4-3.6-1.1-5.2-2.1
			c-1.6-1-3,1.5-1.4,2.5c1.5,0.9,3.2,1.6,4.9,2.1c-0.2,0.2-0.3,0.5-0.5,0.7c-2.1,2.9-4.4,5.7-7.2,8.1c-1.8,1.5-3.7,2.9-5.9,3.9
			c-0.2,0.1-0.4,0.2-0.9,0.4c-0.4,0.1-0.7,0.2-1.1,0.3c-0.3,0.1-0.6,0.1-0.9,0.2c-0.1,0-0.2,0-0.4,0.1c-0.1,0-0.1,0-0.2,0
			c-0.4,0-0.8,0.1-1.2,0c-0.1,0-0.1,0-0.2,0c-0.7-0.3-1.1-0.5-1.3-1.2c-0.3-0.9-0.1-2,0.2-3c0.1-0.4,0.3-0.9,0.4-1.3c0,0,0,0,0,0
			c0,0,0,0,0,0c0,0,0,0,0,0c0.1-0.3,0.2-0.2,0,0c0.1-0.1,0.2-0.2,0.3-0.4c2.2-0.1,4.3-0.7,6-2c2-1.4,3.3-3.4,4.2-5.7
			c0.4-0.9-0.6-1.7-1.4-1.8c-1.6-0.2-3.3,0.5-4.7,1.2c-1.5,0.8-2.9,1.9-4,3.2c-0.6,0.7-1.2,1.4-1.8,2.2c-1.3-0.1-2.5-0.3-3.9-0.7
			c-0.5-0.1-0.9-0.3-1.4-0.4c-0.1-0.1-0.3-0.1-0.4-0.2c-0.1,0-0.1,0,0,0c-0.7-0.2-1.4-0.1-1.7,0.6c-0.4,0.6-0.2,1.6,0.5,2
			c1.7,0.7,3.5,1.3,5.4,1.5c-0.8,2.2-1.2,4.9,0,6.9c0.8,1.3,2.2,2,3.7,2.1c3.3,0.2,6.7-1.4,9.4-3.3c2.8-1.9,5.3-4.3,7.5-6.9
			c1.5-1.8,3-3.8,4.4-5.8c2.1,0.3,4.2,0.4,6.2,0.1c1.5-0.2,2.9-0.5,4.2-1c0,2-0.1,4.1-0.3,6.1c-0.3,2.8-0.6,6.2-2.2,8.5
			c-1.1,1.5,1.4,2.9,2.5,1.4c1.6-2.3,2.1-5.5,2.4-8.2c0.3-2.5,0.5-5,0.5-7.4c0-0.5,0-1.1,0-1.6C68.7,49.3,69.8,48.7,70.9,48.1z
			 M86,44.5C85.9,44.5,85.9,44.5,86,44.5C86,44.5,86,44.5,86,44.5z M85.9,44.7C85.9,44.7,85.9,44.7,85.9,44.7
			C85.9,44.7,85.9,44.7,85.9,44.7C85.9,44.7,85.9,44.7,85.9,44.7C85.9,44.7,85.8,44.7,85.9,44.7C85.9,44.5,85.9,44.5,85.9,44.7
			C85.9,44.6,85.9,44.6,85.9,44.7C85.9,44.6,85.9,44.6,85.9,44.7C86,44.6,85.9,44.7,85.9,44.7z M37.1,53.7c0.5-0.4,1-0.6,1.6-0.8
			c-0.7,0.9-1.6,1.7-2.6,2.3c-0.4,0.2-0.8,0.4-1.3,0.5C35.5,54.9,36.3,54.2,37.1,53.7z M56.1,49.2c0.4-0.6,0.7-1.2,1-1.8
			c1.5-2.7,2.6-5.6,3.6-8.6c0.7-2.2,1.4-4.5,1.8-6.8c0.6,2.4,1,4.9,1.4,7.3c0.4,2.9,0.7,5.8,0.8,8.6C62,49,59,49.5,56.1,49.2z"/>
		<path class="st4" d="M106.8,50.8C106.8,50.8,106.8,50.8,106.8,50.8C106.8,50.8,106.8,50.8,106.8,50.8
			C106.8,50.8,106.8,50.8,106.8,50.8z"/>
		<path class="st4" d="M178.1,60.4c-0.1-0.8-0.6-1.4-1.4-1.4c-0.7,0-1.5,0.7-1.4,1.4c0.3,2.8-0.2,5.7-2.2,7.7
			c-1.5,1.5-3.4,2.5-5.3,3.1c-0.7,0.2-1.4,0.4-2.1,0.5c0-2.8-0.5-5.4-0.9-8.2c2.3-2.9,3.2-7.1,2.9-10.8c-0.1-1.3-0.2-2.7-0.9-3.8
			c-0.7-1.3-2.4-1.7-3.7-0.7c-2.3,1.8-2.9,7.2-2.7,9.5c0.2,2.4,1,5.1,0.9,5.3c-0.5,0.4-1.4,0.9-2,1.1c-0.4,0.1-0.8,0.2-1.2,0.3
			c-0.1,0-0.3,0-0.4,0.1c-0.1,0-0.2,0-0.3,0c-0.3,0-0.6,0-1,0c-2.1-0.2-3.1-1.8-3.2-3.8c-0.2-2.5,0.4-5.1,1.5-7.3
			c0.3-0.5,0.5-1,0.9-1.4c0,0,0.3-0.3,0.3-0.4c0.1-0.1,0.6-0.5,0.3-0.3c0.6-0.5,0.9-1.2,0.5-2c-0.4-0.6-1.3-1-2-0.5
			c-2.1,1.5-3.2,4.2-3.9,6.6c-0.7,2.5-0.9,5.4,0,7.9c-0.2,0.4-0.5,0.6-0.6,0.8c0,0,0,0,0,0c0,0,0,0,0,0c0,0,0,0,0,0c0,0,0,0-0.1,0
			c-0.1-0.1-0.2-0.2-0.4-0.3c-0.2-0.2-0.1-0.2-0.2-0.3c-0.2-0.2-0.3-0.5-0.4-0.7c-0.9-1.5-1.4-3-2-4.7c-0.4-1.4-0.7-2.9-0.9-4.3
			c1.5-4.6,2.3-9.5,2.7-14.3c0.4-4.6,0.5-9.4-0.1-13.9c-0.2-1.4-0.3-3.3-1.3-4.4c-1-1.1-2.5-0.7-3.2,0.5c-1.1,1.8-1.1,4.2-1.3,6.3
			c-0.2,2.5-0.3,4.9-0.4,7.4c-0.2,6-0.2,12.3,0.8,18.3c-0.2,0.5-0.3,1-0.5,1.4c-0.1,0.3-0.3,0.7-0.4,1c0,0.1-0.1,0.1-0.1,0.2
			c-0.1,0.2-0.1,0.3-0.2,0.5c-0.3,0.6-0.6,1.1-0.9,1.7c-1.4,2.4-3.2,4.5-5.8,5.6c-1.8,0.8-3.5,1-5.4,0.8c-0.1,0-0.2,0-0.4,0
			c0,0,0,0,0,0c0,0,0,0,0,0c-0.1,0-0.3,0-0.4-0.1c-0.8-0.2-1.4-0.9-1.7-1.6c-0.3-0.8-0.4-1.7-0.3-2.7c0.2,0.1,0.4,0.1,0.6,0.1
			c4.1-0.3,9.8-1.8,11.2-6.1c0.8-2.3-0.2-5.1-2.3-6.3c-3.2-1.8-6.5,0.8-8.5,3.2c-1.6,2-2.8,4.2-3.4,6.7c-0.3,1.3-0.5,2.8-0.4,4.2
			c0,0-0.1,0.1-0.1,0.1c-1.1,1.3-2.4,2.4-4.1,2.7c-0.2,0-0.4,0.1-0.7,0.1c-0.1,0-0.3,0-0.4,0c0,0-0.2,0-0.3,0
			c-0.5-0.1-1-0.2-1.5-0.4c-0.1,0-0.2-0.1-0.2-0.1c-0.1-0.1-0.2-0.1-0.3-0.2c-0.2-0.1-0.4-0.2-0.5-0.3c-0.1-0.1-0.2-0.2-0.3-0.2
			c0,0,0,0,0,0c0,0,0,0,0,0c-0.8-0.9-1.5-1.8-1.8-3c-0.7-2.7-0.2-6,1.7-7.9c0.2-0.2,0.4-0.4,0.6-0.6c0,0,0.2-0.1,0.2-0.2
			c0,0,0.1-0.1,0.1-0.1c0.3-0.2,0.7-0.4,1-0.6c0.1,0,0.2-0.1,0.2-0.1c0,0,0,0,0,0c0.2,0,0.5-0.1,0.6-0.1c0.2,0,0.4,0,0.5,0
			c0.1,0,0.4,0,0.5,0c0.1,0,0.3,0,0.4,0.1c0.1,0,0.4,0.2,0.4,0.1c0.1,0,0.1,0.1,0.2,0.1c0,0,0.3,0.2,0.3,0.2
			c0.1,0.1,0.1,0.1,0.2,0.2c0,0,0.1,0.2,0.2,0.2c0.1,0.1,0.2,0.3,0.3,0.4c0,0.1,0.1,0.2,0.1,0.3c0,0,0,0,0,0c0,0,0,0,0,0
			c0,0.1,0.1,0.3,0.1,0.4c0,0.2,0.1,0.3,0.1,0.5c0.1,0.8,1.1,1.2,1.8,1c0.8-0.2,1.1-1,1-1.8c-0.3-1.9-1.7-3.6-3.4-4.2
			c-2.4-0.9-4.8,0-6.6,1.6c-2.8,2.4-3.7,6.2-3.3,9.7c0.1,0.9,0.3,1.7,0.6,2.5c-0.9,0.7-1.8,1.3-2.8,1.7c-0.3,0.1-0.8,0.3-1.1,0.3
			c0,0-0.3,0-0.4,0c-0.1,0-0.1,0-0.2,0c0,0,0,0,0,0c0,0,0,0-0.1,0c-0.1,0-0.3-0.1-0.4-0.1c0,0,0.1,0.1-0.1-0.1c0,0-0.1-0.1-0.2-0.1
			c-0.1-0.1-0.2-0.1-0.2-0.2c1.1-1.5,1.8-3.3,2.1-5.1c0.4-2.1,0.8-8-1-10.3c-0.5-0.6-1.5-0.6-2.1-0.2c-0.6,0.3-1,0.8-1.3,1.4
			c0-0.7-0.5-1.4-1.4-1.4c-4.4,0.1-9,2.8-10.5,7c-0.9,2.4-0.9,5.4,0,7.8c-1,0.6-2,1.2-3.1,1.4c-0.4,0.1-0.1,0.1-0.4,0.1
			c-0.1,0-0.4,0-0.4,0c-0.1,0-0.4-0.1-0.4-0.1c-0.1-0.1-0.3-0.2-0.3-0.2c-0.4-0.4-0.6-0.8-0.8-1.4c-0.3-1-0.3-1.4-0.4-2.3
			c-0.1-1.2,0.2-2.4,0.1-3.5c0,0,0,0,0-0.1c0.8-0.1,1.5-0.3,2.1-0.8c2.2-2.3-1.3-6.2-3.5-3.6c-0.4,0.4-0.6,0.9-0.9,1.5
			c-1.3-0.1-2.5-0.2-3.7-0.5c0-1.4-0.2-2.8-0.8-4.1c-0.7-1.5-2.3-2.9-4-2c-1.3,0.7-2.1,2.2-2.1,3.7c0.1,2.3,2,3.7,3.9,4.5
			c-0.4,2.7-1.6,5.3-3.4,7.3c-0.4,0.5-0.9,0.9-1.3,1.3c-0.5,0.4-0.6,0.5-0.9,0.8c-0.4,0.3-0.7,0.5-1.1,0.7c-1.6,0.9-0.2,3.3,1.4,2.5
			c4.3-2.3,7.3-6.9,8.2-11.7c1.1,0.2,2.2,0.3,3.4,0.4c0,0,0,0,0,0c-0.1,0.7-0.1,1.4-0.1,2c-0.1,2.1,0.1,4.5,1.2,6.4
			c1.6,2.7,4.6,2.6,7.2,1.4c0.7-0.3,1.3-0.7,1.9-1c1.8,1.9,4.5,2.6,7.1,2.1c1.4-0.3,2.6-0.9,3.6-1.8c1.8,1.7,4.4,1.5,6.7,0.4
			c0.8-0.4,1.5-0.9,2.2-1.4c0.6,0.8,1.4,1.4,2.3,1.9c1.4,0.8,3.1,1.2,4.7,1c2-0.2,3.7-1.3,5.2-2.6c0.2,0.3,0.5,0.6,0.7,0.9
			c1.4,1.3,3,1.6,4.8,1.6c2.6,0,5.2-0.7,7.4-2.1c2.7-1.7,4.5-4.3,5.9-7.1c0.4,1.5,1,2.9,1.6,4.3c0.8,1.8,2.4,4.7,4.9,4.2
			c0.7-0.1,1.3-0.6,1.8-1.1c2.2,1.9,5.7,1.8,8.4,0.6c0.4-0.2,0.7-0.3,1.1-0.6c0.1,0.6,0.3,1.2,0.4,1.8c0.1,0.5,0.2,1,0.3,1.5
			c0,0.1-0.1-0.5,0-0.3c0.1,1.2,0.1,2.3,0.1,3.4c-3.4,0.6-6.7,1.6-9.8,3.2c-1.7,0.9-3.5,2-4.8,3.4c-1.4,1.5-3,3.7-2.3,5.9
			c0.6,1.8,2.6,2.7,4.3,2.9c3,0.3,6.3-0.3,8.9-1.8c3.9-2.4,5.8-6.7,6.3-11c0.5-0.1,1-0.2,1.4-0.3c4.8-1.1,9.4-4,10.8-8.9
			C178.2,63.9,178.3,62.1,178.1,60.4z M118.1,51.3c-0.1,0-0.2,0.1-0.2,0.1C117.9,51.3,118,51.3,118.1,51.3z M76.5,50
			C76.5,50,76.5,50,76.5,50C76.4,49.9,76.4,49.8,76.5,50z M76.5,50C76.5,50,76.5,50,76.5,50C76.5,50,76.5,50,76.5,50z M77.1,52.2
			c0,0-0.1-0.1-0.1-0.1c-0.1-0.1-0.2-0.2-0.3-0.3c0,0-0.1-0.1-0.2-0.2c0-0.1-0.1-0.2-0.1-0.2c0-0.1,0-0.2-0.1-0.2c0,0,0,0,0,0
			c0-0.1,0-0.2,0-0.3c0-0.1,0-0.2,0.1-0.3c0,0,0-0.1,0-0.1c0,0,0-0.1,0.1-0.1c0,0,0.1-0.1,0.2-0.2c0,0,0,0,0,0.1
			c0.2,0.2,0.3,0.5,0.4,0.7c0.2,0.4,0,0,0.2,0.4c0,0.1,0.1,0.2,0.1,0.4c0,0.2,0.1,0.5,0.1,0.8c-0.1,0-0.1-0.1-0.2-0.1
			C77.2,52.3,77.2,52.3,77.1,52.2z M86.4,54.4C86.4,54.4,86.4,54.4,86.4,54.4C86.4,54.4,86.4,54.4,86.4,54.4
			C86.4,54.4,86.4,54.4,86.4,54.4z M104.6,61.2c-0.8-1.9-0.1-6.1,1.2-7.6C106.1,53.3,106.1,59.6,104.6,61.2z M102.5,63.7
			C102.5,63.7,102.5,63.8,102.5,63.7c-0.3,0.2-0.5,0.4-0.7,0.5c-0.2,0.1-0.4,0.2-0.6,0.3c-0.1,0-0.2,0.1-0.3,0.1c0,0,0,0,0,0
			c0,0,0,0,0,0c-0.2,0.1-0.5,0.2-0.7,0.3c-1.1,0.3-2.5,0.1-3.5-0.5c-0.6-0.4-1-0.8-1.4-1.4c-0.1-0.2-0.2-0.4-0.3-0.6
			c0-0.1-0.1-0.3-0.2-0.4c-0.9-3.2-0.2-6.8,2.3-8.8c1-0.8,2.3-1.3,3.7-1.7c0.3-0.1,0.6-0.1,0.8-0.2c0.1,0,0.2,0,0.3-0.1
			c0,0,0.1,0,0.1,0c0.1,0,0.3,0,0.3,0c0.1,0,0.2,0,0.2,0c0.4,0,0.7-0.1,0.9-0.3c-0.1,0.2-1.8,3.1-2.1,6.9
			C101.3,61.2,102.7,63.6,102.5,63.7C102.5,63.7,102.5,63.7,102.5,63.7z M128.2,56.7c0.3-0.8,0.7-1.6,1.2-2.4c0,0,0.2-0.2,0.2-0.3
			c0.2-0.3,0.5-0.6,0.7-0.9c0.6-0.7,1.2-1.4,2-1.9c0.5-0.3,1-0.6,1.5-0.8c0.4-0.1,0.8-0.1,1.1,0c0.3,0.1,0.6,0.3,0.7,0.4
			c0.4,0.4,0.4,0.4,0.6,0.9c-0.1-0.2,0.1,0.2,0.1,0.3c0,0.1,0.1,0.5,0.1,0.5c0,0.5,0,0.9-0.2,1.3c-0.3,0.7-1.1,1.4-1.9,1.9
			c-1.7,1-3.7,1.5-5.7,1.8c-0.1,0-0.2,0-0.2,0c-0.1,0-0.2,0-0.3,0c-0.1,0-0.2,0-0.3,0C128,57.3,128.1,57,128.2,56.7z M142.4,56
			C142.4,56.1,142.4,56,142.4,56L142.4,56z M145.5,44.7c-0.1-1.4-0.1-2.8-0.1-4.2c0-4.5,0.1-9.1,0.6-13.6c0-0.3,0.1-0.7,0.1-1
			c0.1,0.5,0.1,1.1,0.1,1.6c0.1,2.1,0.2,4.3,0.2,6.4C146.3,37.5,146,41.1,145.5,44.7z M133.3,22.6c0,0,0,0.1,0.1,0.1
			C133.3,22.8,133.3,22.7,133.3,22.6z M150.3,64.1C150.3,64.1,150.3,64.1,150.3,64.1C150.3,64.1,150.3,64.1,150.3,64.1
			C150.3,64.1,150.3,64.1,150.3,64.1C150.3,64.1,150.3,64.1,150.3,64.1z M150.4,64.1C150.4,64.1,150.4,64.1,150.4,64.1
			C150.4,64.1,150.4,64.1,150.4,64.1C150.4,64.1,150.4,64.1,150.4,64.1z M164.1,58.8c-0.9-1.7-0.2-6.6,0.6-6.9
			C165,52.9,165,57.4,164.1,58.8z M161.9,77.9c-0.7,1.9-1.9,3.9-3.6,5c-1.1,0.8-2.2,1.2-3.5,1.5c-0.7,0.2-1.4,0.3-2.1,0.3
			c-0.4,0-0.8,0-1.2,0c-0.2,0-1.3-0.1-1.1,0c-0.1,0-0.3-0.1-0.4-0.1c-0.2,0-0.3-0.1-0.5-0.1c0,0,0,0,0,0c0,0,0,0,0,0
			c-0.1-0.1-0.3-0.1-0.4-0.2c-0.3-0.2-0.3-0.3-0.4-0.4c0-0.1,0-0.3,0,0c0-0.1,0-0.3,0-0.4c0,0,0.2-0.6,0.3-0.8
			c0.3-0.6,0.8-1.2,1.3-1.7c0.2-0.2,0.4-0.4,0.6-0.6c0.2-0.1,0.3-0.3,0.5-0.4c0.3-0.3,0.1-0.1,0.4-0.3c2.5-1.8,5.4-3,8.4-3.9
			c0.9-0.2,1.7-0.4,2.6-0.6C162.4,76.1,162.2,77,161.9,77.9z"/>
	</g>
	<g>
		<path class="st4" d="M56.7,72.5c1.1,1.5,0.3,4.8-0.2,6.5c-0.2,1-1.9,0.7-1.7-0.4c0.3-1.1,0.5-2.2,0.5-3.4c0.1-2.3-1.2-1.9-2,0
			c-0.2,0.6-0.4,1.2-0.6,1.9c-0.3,0.9-1.6,0.8-1.7-0.2c0-0.7-0.1-1.5-0.2-2.1c-0.2-0.9-0.9-1.1-1.3-0.1c-0.5,1.3-0.5,2.8-0.4,4.3
			c0.1,0.9-1.3,1.1-1.7,0.3c-0.2-0.5-0.2-1.2-0.3-1.7c-0.2-1.7-0.3-3.6,0-5.3c0.2-1,1.7-0.9,1.7,0.1c0,0.1,0,0.3,0,0.4
			c1.3-0.8,2.7-0.7,3.4,0.8c0.4-0.6,1.1-1.3,1.9-1.6C55.2,71.4,56.2,71.8,56.7,72.5z"/>
		<path class="st4" d="M64.3,73.3c-0.1,0.5-0.1,1.1-0.2,1.6c-0.1,1.2-0.1,2.4,0,3.7c0.1,1.1-1.7,1.1-1.7,0c0-0.2,0-0.4-0.1-0.6
			c-0.2,0.2-0.4,0.3-0.7,0.4c-0.8,0.4-1.9,0.5-2.7-0.1c-0.9-0.6-1.2-1.9-1-3c0.4-1.8,2.1-3.4,4.1-2.9c0.2,0.1,0.4,0.1,0.6,0.3
			C63.3,71.7,64.7,72.4,64.3,73.3z M62.3,74.6c-0.7-0.8-1.5-0.6-2.1,0.3c-0.5,0.6-0.8,2.6,0.5,2.2C61.6,76.7,62,75.5,62.3,74.6z"/>
		<path class="st4" d="M69.3,78.7c-0.7-0.5-1.7-1.1-2.5-1.5c0.1,0.4,0.1,0.9,0.1,1.3c0.1,0.9-1.3,1.2-1.7,0.3
			c-0.4-1.3-0.3-3.8-0.3-5.7c0-1.1,0-2.3,0.1-3.4c0.1-1.2,1.8-1.1,1.7,0c-0.1,1.6-0.1,3.1-0.1,4.8c0.7-0.7,1.5-1.4,2.1-2.2
			c0.8-0.7,2,0.4,1.2,1.2c-0.6,0.8-1.3,1.5-2.1,2.2c0.9,0.4,1.7,0.9,2.5,1.6C71.2,78.1,70.1,79.6,69.3,78.7z"/>
		<path class="st4" d="M77.2,78.2c-0.9,1-2.6,1.3-3.8,0.9c-1-0.3-1.7-1.2-2-2.2c-0.3-1.1-0.2-2.4,0.5-3.5c0.5-0.8,1.4-1.3,2.4-1.3
			c1.2,0,2.1,0.9,2.3,2.2c0.1,1.8-2.1,2.5-3.5,2c0.2,1.2,1.3,1.5,2.4,1.1c0.4-0.2,0.7-0.6,1.1-0.6C77.3,76.7,77.7,77.7,77.2,78.2z
			 M74.2,73.8c-0.4,0-0.7,0.3-1,0.7c0.4,0.1,0.7,0.2,1.1,0.2C75.1,74.6,74.8,73.8,74.2,73.8z"/>
		<path class="st4" d="M79.3,69.9c0.1,0.6-0.2,1.7-0.4,1.9c-0.3,0.2-0.7,0.2-0.7-0.4c0.1-0.5,0.1-1,0-1.5
			C78.1,69.3,79.2,69.2,79.3,69.9z"/>
		<path class="st4" d="M82.7,73.9c0.4,0.2,0.9,0.4,1.3,0.7c1,0.6,1.7,1.9,1.3,3.1c-0.4,1.1-1.5,1.8-2.7,1.8c-0.8,0-1.5-0.3-2.2-0.9
			c-0.8-0.8,0.4-2.1,1.2-1.2c0.4,0.6,1.3,0.7,1.8,0.2c0.4-0.4,0.4-1.1-0.2-1.5c-0.4-0.3-1-0.5-1.5-0.8c-0.9-0.4-1.3-1.2-1.2-2.1
			c0.1-1.1,0.8-1.8,1.8-2c1-0.2,2.2,0.3,3,1.1c0.3,0.4,0.4,0.8,0,1.2c-0.1,0.2-0.4,0.3-0.6,0.3c-0.2,0-0.5-0.1-0.6-0.3
			c-0.3-0.3-0.8-0.6-1.3-0.7C82,72.9,82.1,73.6,82.7,73.9z"/>
	</g>
</g>
</svg>
